<?xml version="1.0" encoding="UTF-8" standalone="no"?>
<!-- Created with Inkscape (http://www.inkscape.org/) -->

<svg
   width="200mm"
   height="146.504mm"
   viewBox="0 0 200 146.50399"
   version="1.1"
   id="svg15850"
   xml:space="preserve"
   inkscape:version="1.2.2 (732a01da63, 2022-12-09)"
   sodipodi:docname="baby-snuggle.svg"
   xmlns:inkscape="http://www.inkscape.org/namespaces/inkscape"
   xmlns:sodipodi="http://sodipodi.sourceforge.net/DTD/sodipodi-0.dtd"
   xmlns="http://www.w3.org/2000/svg"
   xmlns:svg="http://www.w3.org/2000/svg"><sodipodi:namedview
     id="namedview15852"
     pagecolor="#ffffff"
     bordercolor="#000000"
     borderopacity="0.25"
     inkscape:showpageshadow="2"
     inkscape:pageopacity="0.0"
     inkscape:pagecheckerboard="0"
     inkscape:deskcolor="#d1d1d1"
     inkscape:document-units="mm"
     showgrid="false"
     inkscape:zoom="0.44631734"
     inkscape:cx="42.570607"
     inkscape:cy="322.64039"
     inkscape:window-width="2560"
     inkscape:window-height="1369"
     inkscape:window-x="1912"
     inkscape:window-y="-8"
     inkscape:window-maximized="1"
     inkscape:current-layer="layer1" /><defs
     id="defs15847" /><g
     inkscape:label="Layer 1"
     inkscape:groupmode="layer"
     id="layer1"
     transform="translate(-1.8873837e-8,-6.7094866)"><path
       style="fill:#000000;stroke-width:0.282974"
       d="m 64.293427,152.96575 c -2.668628,-0.77247 -4.134267,-7.68608 -2.340092,-11.03853 1.361829,-2.54461 0.578856,-4.32746 -1.579974,-3.59765 -5.585909,1.88836 -7.615459,-1.47274 -6.096414,-10.09616 3.006972,-17.0702 2.889471,-35.652802 -0.278988,-44.121271 -0.815411,-2.179384 -0.496719,-2.116219 -8.190483,-1.623175 -2.567994,0.164566 -6.360004,0.383548 -8.426688,0.486617 -5.289251,0.263805 -4.96786,-0.154908 -5.00457,6.520078 0,0 0.0067,1.162739 -0.02941,5.34675 -0.03612,4.18401 -9.651377,8.260771 -13.7049,8.535451 -4.032409,0.21118 -4.813874,-0.67852 -2.709224,-3.08446 0.711893,-0.813797 1.294351,-1.584305 1.294351,-1.71225 0,-0.127935 0.238573,-0.766818 0.530159,-1.419733 0.306727,-0.686807 0.613469,-2.259875 0.72783,-3.732537 0.298236,-3.840441 1.906669,-6.476186 4.594399,-7.528862 1.317948,-0.516188 4.570553,-1.386192 5.18244,-1.386192 0.502797,0 0.528883,-0.0692 0.21581,-0.572424 C 28.13423,83.389342 27.955435,83.376754 23.452477,83.587683 15.736304,83.949124 5.6795091,83.863007 4.1636578,83.422519 0.30357324,82.300805 -1.1252798,76.863679 0.95532112,71.214022 2.002421,68.37073 3.5855157,67.717437 12.274978,66.542764 c 7.81426,-1.056361 7.409025,-0.804782 5.385777,-3.34362 -0.841462,-1.055888 -1.801759,-2.517781 -2.133996,-3.248648 -0.332238,-0.730863 -0.736006,-1.571935 -0.897265,-1.869044 -0.450374,-0.829784 -1.306763,-4.099644 -1.771127,-6.762514 -0.713153,-4.089521 -1.301457,-5.974597 -2.44563,-7.836431 -1.9059087,-3.101345 -1.9611874,-4.00899 -0.389527,-6.395717 0.848135,-1.287979 1.233928,-2.144563 1.134066,-2.517984 -1.3673186,-5.112854 -0.716158,-6.459304 3.906303,-8.07733 1.610829,-0.563847 2.076211,-0.877398 2.744982,-1.849423 0.817621,-1.188373 1.598515,-1.637597 3.380117,-1.94448 0.544727,-0.09383 1.881782,-0.730192 2.971234,-1.414133 8.838959,-5.548972 19.944966,-4.906625 28.706158,1.660301 1.253467,0.939531 1.196521,0.94907 3.135121,-0.525244 0.908188,-0.690682 2.010422,-1.459314 2.449412,-1.708072 0.438989,-0.248759 1.371187,-0.821604 2.07155,-1.272991 1.65368,-1.065804 3.53308,-2.194016 4.962851,-2.979222 0.628481,-0.345151 1.392513,-0.767735 1.697848,-0.939075 3.646963,-2.046514 10.165635,-4.658212 15.552809,-6.2312126 4.289526,-1.2524994 5.183647,-1.4575384 7.640323,-1.7520826 1.400717,-0.167941 3.056127,-0.4225401 3.678667,-0.5657753 1.505347,-0.3463514 11.914959,-0.3478808 13.121219,-0.00193 0.52227,0.1497839 1.85848,0.3988237 2.96937,0.5534214 1.90843,0.2655905 3.24788,0.5967997 6.54738,1.618981 1.78435,0.5527915 6.79594,2.6282591 7.7818,3.2227091 0.23346,0.140767 1.15144,0.637658 2.03996,1.104203 5.40253,2.836762 13.36804,9.777805 18.20814,15.866322 3.48043,4.37815 4.80421,6.575959 7.92549,13.15832 2.12251,4.479348 3.77659,10.414459 4.36869,14.893646 0.48317,3.768726 0.27889,3.64119 5.83219,3.64119 h 4.61277 l 1.43487,-0.84603 c 4.76581,-2.810025 5.61708,-3.876865 4.56171,-5.716956 -2.99063,-5.214328 -1.22072,-9.435435 6.19624,-14.777507 5.4007,-3.889872 5.87499,-3.998237 6.61335,-1.511034 3.259,10.978188 -0.0927,18.833426 -8.08441,18.946737 l -1.72156,0.02442 -1.94087,1.670462 c -2.91543,2.50923 -3.13558,2.420976 6.42646,2.576193 8.61288,0.139806 10.22135,1.015015 10.12831,5.511104 -0.0826,3.991309 -0.87724,4.74429 -5.33733,5.057486 -4.11062,0.288652 -4.81059,2.625238 -0.79198,2.643745 5.20409,0.02397 9.29713,3.48105 9.69139,8.185571 0.2481,2.960705 0.60847,3.6941 3.30375,6.723499 1.9999,2.247822 2.30513,2.873892 1.90698,3.911456 -0.85995,2.240978 -9.21348,-1.515785 -16.48197,-7.412306 -3.53781,-2.870042 -4.84834,-6.283288 -3.42915,-8.931194 0.69219,-1.291475 0.70963,-2.419944 0.0496,-3.209498 -0.99145,-1.186034 -1.55419,-1.298975 -4.94483,-0.992428 -1.74325,0.157608 -4.31561,0.359553 -5.71632,0.448766 -12.08135,0.769487 -11.28872,0.21417 -12.329,8.637637 -0.25743,2.084486 -0.56476,3.693618 -1.72949,9.055192 -0.93333,4.296362 -3.35882,12.741806 -4.18536,14.573196 -0.14048,0.31128 -0.33723,0.8843 -0.43721,1.27339 -0.30298,1.17914 -2.49308,6.81696 -3.6825,9.47965 -0.20857,0.4669 -0.78371,1.80396 -1.27809,2.97124 -2.1972,5.18778 -7.87903,16.20926 -8.7528,16.97848 -0.0884,0.0779 -0.40024,0.5235 -0.69299,0.99041 -0.47857,0.76325 -2.75999,3.28817 -4.72072,5.22455 -8.49896,8.39341 -15.11848,5.38593 -12.79731,-5.81426 0.61351,-2.96036 0.50269,-3.23046 -1.32555,-3.23046 -4.74269,0 -7.2044,-7.42456 -4.11767,-12.41898 0.28097,-0.45463 2.4572,-6.62856 2.85395,-8.09668 3.486,-12.89886 3.89252,-23.993226 1.1664,-31.832171 -1.09465,-3.147679 -1.36053,-3.442357 -2.95137,-3.271084 -0.73274,0.07889 -3.24232,0.276848 -5.57687,0.43991 -2.33454,0.16306 -7.5131,0.547877 -11.507912,0.855147 -3.994814,0.30727 -7.579673,0.55868 -7.966355,0.55868 -0.866239,0 -1.324364,1.112708 -1.324364,3.216681 0,2.325629 -1.563934,15.200363 -2.410719,19.845747 -0.748732,4.10747 -1.308878,7.33305 -1.572509,9.0552 -0.142951,0.93381 -0.447403,2.58921 -0.676561,3.67867 -0.44933,2.13615 -0.831798,4.03347 -1.397555,6.93287 -0.197401,1.01164 -0.496262,2.28502 -0.664139,2.82976 -0.167877,0.54472 -0.386096,1.49976 -0.484934,2.1223 -0.203767,1.28349 -1.109629,5.24071 -1.684196,7.35734 -0.868762,3.20042 -1.341929,5.18438 -1.619714,6.7914 -1.244788,7.20121 -7.880419,12.96276 -13.166948,11.43252 z m 2.626707,-2.45438 c 0.629748,-0.51573 1.394098,-1.85506 2.350577,-4.11878 0.845229,-2.00042 1.600944,-1.77427 1.524863,0.45635 -0.135933,3.98553 3.25976,-0.48848 4.571471,-6.02315 0.423487,-1.78688 1.389913,-5.90154 2.160056,-9.19668 0.291005,-1.24509 0.723668,-3.13747 0.961472,-4.20529 0.237803,-1.06782 0.501736,-2.05374 0.586518,-2.19092 0.08478,-0.13718 0.333783,-1.23725 0.553335,-2.44461 0.642966,-3.53581 1.202928,-6.30998 1.671129,-8.27914 0.240534,-1.01164 0.439216,-2.19792 0.441517,-2.63619 0.0022,-0.43827 0.247091,-1.90267 0.543976,-3.25421 0.626769,-2.8533 1.372351,-7.04188 1.721869,-9.673218 0.134377,-1.011629 0.376889,-2.794374 0.538931,-3.961638 1.483635,-10.687682 1.960156,-27.6477 0.880335,-31.332027 -0.661503,-2.257009 0.643065,-3.676763 1.826927,-1.988239 0.512178,0.730516 0.350575,0.72832 15.57375,0.211698 4.51345,-0.153171 10.70562,-0.27938 13.76036,-0.280467 6.2689,-0.0022 6.37555,-0.03579 6.00924,-1.890605 -0.43977,-2.226852 0.1803,-3.105156 1.31388,-1.861059 0.96646,1.060671 3.60275,9.209713 4.21185,13.019245 0.15571,0.973902 0.36889,1.909505 0.47371,2.079123 0.20183,0.326552 0.84237,5.572116 1.25762,10.298882 0.32983,3.754591 0.33041,11.820454 0.001,14.997659 -0.7332,7.073026 -1.13931,10.388706 -1.30537,10.657396 -0.10086,0.16325 -0.35441,1.33394 -0.56336,2.60152 -0.53038,3.21758 -1.96079,8.81774 -2.72089,10.65244 -0.16118,0.38909 -0.456,1.4078 -0.65513,2.2638 -0.34775,1.49477 -1.00017,3.47602 -1.53755,4.66908 -2.3674,5.25603 -3.45576,14.35 -1.16416,9.7273 1.05261,-2.12336 1.52707,-2.33465 1.66255,-0.74041 0.0951,1.11848 -0.66952,3.16994 -1.9505,5.23356 -0.52904,0.85227 -0.0597,1.59769 1.07799,1.7121 1.29192,0.12992 3.82516,-3.44194 5.42948,-7.65555 0.32494,-0.85343 1.34291,-1.07832 1.61941,-0.35775 0.15202,0.39615 -0.87679,3.36887 -1.36754,3.95153 -0.12454,0.14786 -0.22643,0.43437 -0.22643,0.63669 0,2.11302 6.16168,-4.812 9.36628,-10.52665 2.01361,-3.59088 7.61214,-15.38343 7.61214,-16.03406 0,-0.16014 0.17437,-0.62914 0.3875,-1.04225 0.76181,-1.47665 3.23252,-7.94188 3.85564,-10.08926 0.13548,-0.46691 0.44148,-1.42195 0.67999,-2.1223 0.41485,-1.21814 1.13078,-3.607421 1.99262,-6.64991 0.93177,-3.289376 2.55616,-11.145261 2.9841,-14.431707 0.78755,-6.048128 0.92367,-16.036213 0.26995,-19.808226 -0.16183,-0.933816 -0.47074,-2.843895 -0.68643,-4.244619 -0.44381,-2.881899 -1.06914,-5.500402 -1.85841,-7.781803 -0.29613,-0.855998 -0.73786,-2.129384 -0.98163,-2.829747 -1.4113,-4.055 -4.89785,-10.437517 -7.46369,-13.663153 -0.71608,-0.900201 -1.73137,-2.173587 -2.25622,-2.829747 C 133.57764,18.938208 121.55881,11.727306 108.66252,9.5020864 100.2258,8.0463533 86.939567,9.4361724 79.82544,12.518608 c -0.511097,0.22145 -1.084121,0.403422 -1.273386,0.404381 -0.189265,9.62e-4 -0.681989,0.178028 -1.094942,0.393488 -0.412953,0.215461 -1.240655,0.547406 -1.839335,0.737658 -2.596533,0.825139 -9.965602,4.664752 -14.529805,7.570675 -4.45015,2.833306 -4.890947,3.237609 -4.654989,4.269592 0.381721,1.669491 -0.908762,1.847366 -2.843839,0.391979 -10.618663,-7.986374 -19.341619,-8.902178 -28.480715,-2.990125 -1.311624,0.848483 -2.579016,1.418025 -3.607612,1.621192 -1.23933,0.244788 -1.603872,0.436803 -1.669072,0.879143 -0.165971,1.12603 -1.036839,1.853097 -2.755726,2.300686 -0.928646,0.241813 -1.815789,0.537723 -1.971424,0.657574 -0.155637,0.119851 -0.629481,0.300643 -1.052989,0.401759 -1.026855,0.245172 -1.444625,1.105604 -1.234735,2.543053 0.607394,4.159779 0.578596,4.499082 -0.490451,5.778648 -1.154695,1.38208 -1.550893,2.702737 -1.007316,3.357707 1.645967,1.98327 3.222105,6.499559 3.787494,10.852753 0.748246,5.761067 4.98283,12.658054 8.279798,13.485539 2.296597,0.576411 6.666676,-0.76464 7.140315,-1.760039 0.473639,-0.9954 0.503129,-1.234674 0.678642,-1.665915 0.175513,-0.43124 1.065609,-2.030097 2.153657,-3.657241 2.615368,-3.911202 2.678384,-5.55342 0.2131,-5.55342 -1.969682,0 -3.896297,1.612814 -8.203927,6.867682 -1.760948,2.148182 -5.567681,0.872054 -6.028208,-2.02083 -0.08989,-0.564681 -0.213151,-1.268566 -0.2739,-1.56419 -1.119699,-5.448586 3.548923,-11.853454 9.338327,-12.811219 l 1.414873,-0.234068 0.213951,-2.829747 c 0.744056,-9.840038 11.278237,-18.86063 16.235876,-13.90299 2.216579,2.216583 1.853693,3.686183 -1.916124,7.759798 -3.472601,3.752447 -4.156707,8.491641 -1.422174,9.852181 1.345712,0.669543 3.623995,-1.006173 4.828009,-3.551085 3.580196,-7.567416 7.576391,-9.395698 11.097645,-5.077239 3.126564,3.834414 4.098854,13.053487 1.831947,17.370221 -0.245192,0.466907 -0.44659,0.954046 -0.44755,1.082527 -0.0038,0.51288 -2.458568,4.442897 -4.323554,6.921978 -2.312996,3.074602 -2.33095,3.020611 1.020448,3.06881 3.546295,0.05099 4.123911,-0.08222 4.305873,-0.993077 0.932095,-4.665842 2.613726,-2.245576 4.498062,6.473777 0.184989,0.855999 0.414309,1.747369 0.509601,1.980824 0.256581,0.628596 1.051174,4.592437 1.503218,7.498827 0.217859,1.400725 0.470157,2.801452 0.560657,3.112722 0.0905,0.311271 0.347151,2.28502 0.57033,4.386105 0.223177,2.101086 0.529632,4.711525 0.681009,5.800982 0.347946,2.50413 0.349644,17.926646 0.0022,20.940126 -0.143511,1.24508 -0.392944,3.72819 -0.554296,5.518 -0.161349,1.78982 -0.471442,4.14559 -0.689089,5.23503 -0.217647,1.08946 -0.525512,2.74486 -0.684145,3.67868 -0.577064,3.39699 -1.145858,6.01168 -2.031398,9.33816 -0.497181,1.86763 -1.014119,3.9387 -1.148753,4.60238 -0.134631,0.66368 -0.375629,1.45118 -0.535552,1.74999 -0.345659,0.64588 -0.390544,3.31518 -0.05919,3.51997 0.127367,0.0787 0.382373,-0.27389 0.566677,-0.78357 0.184304,-0.50969 0.642234,-1.21525 1.017619,-1.5679 0.618102,-0.59346 0.601599,-0.79239 1.01106,-0.0273 0.281254,0.52553 0.142178,0.98122 -0.966219,3.16592 -1.761042,3.47109 -0.967712,5.37135 1.424545,3.4122 z m -6.938427,-14.77913 c 0.210057,-0.39665 0.738104,-2.2281 1.305407,-4.52759 0.553452,-2.24336 2.352526,-1.14202 1.882517,1.15241 -0.27583,1.34651 -0.263478,1.39436 0.359961,1.39436 0.508825,0 0.677486,-0.19483 0.796149,-0.91967 0.221963,-1.35579 0.655505,-3.57439 0.981526,-5.02279 0.640722,-2.84653 1.187794,-6.32227 1.431376,-9.09403 0.141733,-1.61282 0.394186,-3.54132 0.561008,-4.28555 0.501057,-2.23534 0.438277,-19.449539 -0.08743,-23.973087 -0.244179,-2.101085 -0.530533,-4.76161 -0.63634,-5.912275 -0.231216,-2.514515 -0.761911,-3.24959 -2.173621,-3.010715 -0.499878,0.0846 -2.462451,0.205368 -4.361273,0.268394 -4.407039,0.146298 -4.323499,0.03626 -3.240043,4.268491 0.945871,3.694816 1.206788,5.490685 1.608496,11.071187 0.555431,7.716005 -0.01118,18.836355 -1.432808,28.120815 -0.769706,5.02678 -1.083841,8.09883 -0.881953,8.62494 0.315528,0.82225 0.741997,0.14694 0.934693,-1.48009 0.146989,-1.24108 0.270618,-1.46756 0.885307,-1.62184 1.224985,-0.30745 1.482314,1.23566 0.692837,4.1547 -0.155741,0.57584 -0.207748,1.12239 -0.115575,1.21458 0.292152,0.29214 1.256133,0.0189 1.489766,-0.42224 z m 57.300833,-6.01671 c 0.32447,-0.50389 0.86422,-1.82259 1.19947,-2.93045 1.02252,-3.37904 2.26345,-3.44463 2.35903,-0.12468 0.0321,1.11325 0.0785,1.28354 0.15892,0.5826 0.0625,-0.54472 0.34937,-1.18142 0.63748,-1.41487 0.28812,-0.23346 0.71163,-1.12483 0.94114,-1.98082 0.22952,-0.85601 0.6932,-2.44774 1.03042,-3.53718 0.33721,-1.08946 0.78272,-2.74486 0.98999,-3.67868 0.20728,-0.93381 0.57432,-2.52554 0.81562,-3.53718 0.88295,-3.7015 1.32796,-6.14336 1.59866,-8.77221 0.15226,-1.47855 0.40477,-3.51596 0.56115,-4.527604 0.6853,-4.433356 0.27493,-18.962944 -0.6114,-21.647555 l -0.3737,-1.131898 -1.26968,0.05009 c -6.78576,0.267685 -7.23726,0.683162 -5.53332,5.091772 1.16085,3.003453 1.8885,12.416214 1.29785,16.788672 -0.13665,1.011639 -0.38342,2.921723 -0.54837,4.244623 -0.55562,4.45614 -2.06937,10.04867 -4.40414,16.27105 -1.47984,3.94391 -1.47213,3.82839 -0.31735,4.75479 1.05244,0.8443 1.32833,1.91101 0.76941,2.97488 -1.08613,2.06733 -0.46096,4.32583 0.69882,2.52466 z m -94.6442,-29.18488 c 5.215811,-1.620497 7.75999,-4.48701 7.550671,-8.50731 -0.09937,-1.908627 -0.55034,-2.293223 -1.204855,-1.027533 -0.571569,1.105297 -1.454224,1.606715 -2.012581,1.143329 -0.583873,-0.484574 -0.50363,-1.125361 0.286541,-2.288197 1.594055,-2.345874 1.189316,-3.212285 -1.258864,-2.694834 -3.527268,0.745545 -5.141352,2.831956 -5.480469,7.084223 -0.09898,1.241124 -0.494026,3.104714 -0.892035,4.208085 -1.067049,2.958107 -0.676541,3.228107 3.011592,2.082237 z M 195.50105,90.469159 c 0,-0.304201 -0.32645,-0.879544 -0.72545,-1.278535 -1.17631,-1.176312 -2.11694,-3.575705 -2.30044,-5.867998 -0.24597,-3.072724 -1.03568,-4.210213 -3.87843,-5.586362 -2.88214,-1.395225 -3.44348,-0.221487 -1.16856,2.443413 2.06958,2.424345 1.88923,5.029683 -0.1975,2.853208 -1.53293,-1.598854 -2.97253,-3.254113 -3.5726,-4.107807 -1.16574,-1.658458 -2.4971,-0.900476 -2.03297,1.157434 0.30277,1.342439 2.23989,3.847639 3.86409,4.997267 2.97234,2.103866 5.61553,3.76935 8.03104,5.060399 0.23345,0.12478 0.67914,0.366799 0.99041,0.537835 0.81699,0.448884 0.99041,0.412307 0.99041,-0.208854 z M 25.999252,81.305647 c 1.16727,-0.0738 5.624121,-0.274896 9.904112,-0.447002 4.279992,-0.172116 9.246196,-0.439932 11.036011,-0.595161 1.789814,-0.155228 6.374003,-0.411515 10.187087,-0.569514 8.871226,-0.367612 8.303633,-0.202244 8.121847,-2.366193 -0.07982,-0.950207 -0.398477,-2.810026 -0.708122,-4.132933 -0.309645,-1.322906 -0.76445,-3.282744 -1.010678,-4.355197 -0.84615,-3.685408 -0.485403,-3.590399 -11.355104,-2.990494 -2.801449,0.154615 -10.028777,0.526611 -16.060729,0.826655 -6.031949,0.300046 -11.086785,0.619456 -11.232963,0.709799 -0.14618,0.09034 -1.323198,0.227953 -2.6156,0.305794 -7.200386,0.43369 -17.8404391,2.004581 -18.4756021,2.727731 -1.7067621,1.943199 -2.0973463,7.838253 -0.6392998,9.648889 1.2701409,1.577281 9.9936359,2.049791 22.8490409,1.237626 z m 72.441504,-4.433688 c 2.947914,-0.252385 11.054014,-0.866361 22.496484,-1.703943 4.81571,-0.352505 5.69534,-0.667507 5.37629,-1.925292 -0.10534,-0.415424 -0.31317,-1.50478 -0.46176,-2.420794 -0.3438,-2.119433 -1.59143,-6.443613 -1.96766,-6.819789 -0.54652,-0.546432 -34.84004,0.180088 -35.542698,0.752984 -0.330671,0.269608 -0.257741,10.415049 0.08684,12.088241 l 0.139507,0.677291 3.309376,-0.185044 c 1.820146,-0.101775 4.773759,-0.310421 6.563574,-0.463654 z M 166.0717,71.484395 c 1.47854,-0.155587 4.27998,-0.394669 6.22543,-0.531293 16.32425,-1.146406 16.69551,-1.234593 16.69551,-3.965722 0,-1.167246 -0.14605,-1.587386 -0.81025,-2.330749 l -0.81025,-0.906826 -3.22214,-0.20979 c -6.78766,-0.441938 -25.92289,-0.29661 -26.11281,0.198324 -0.30238,0.787999 -0.18689,7.201658 0.14072,7.813781 0.34114,0.637434 1.26826,0.629479 7.89379,-0.06772 z M 37.459724,64.422161 c 3.190472,-0.01027 3.508885,-0.175592 3.007693,-1.561621 -0.465904,-1.288432 -0.500555,-1.261677 1.893734,-1.462405 2.598434,-0.217842 3.681762,-1.177788 3.968902,-3.516865 l 0.18486,-1.505881 1.201009,-0.237328 c 2.003837,-0.395975 4.238878,-3.402088 4.295467,-5.777375 0.01427,-0.598768 0.23633,-1.055175 0.658222,-1.352845 1.385944,-0.977869 2.070446,1.645752 1.024934,3.928461 -0.784363,1.712529 -3.401828,4.977912 -3.990195,4.977912 -0.465804,0 -1.350103,0.875716 -1.350103,1.337001 0,0.685172 -1.683197,2.885509 -2.550376,3.333945 -1.755043,0.907568 -0.383713,1.59639 2.500995,1.256255 1.98205,-0.233703 2.509074,-0.626495 5.10518,-3.804891 6.446521,-7.892441 8.170298,-15.54541 4.946985,-21.962885 -2.44328,-4.864461 -5.797293,-3.534554 -8.954979,3.550751 -2.419968,5.429996 -8.432597,5.802113 -9.940469,0.615211 -1.045755,-3.597268 -0.147401,-6.0407 3.910709,-10.636732 4.03008,-4.564287 0.68922,-6.423793 -4.821901,-2.683844 -4.714477,3.199328 -6.144794,5.932772 -6.169668,11.79069 -0.01791,4.21785 0.07719,4.07254 -2.909344,4.445489 -4.893149,0.611041 -7.389555,2.931725 -8.022753,7.458034 -0.760709,5.437797 1.000932,7.456792 3.435717,3.937629 3.769624,-5.448501 9.265591,-7.773661 11.856283,-5.015997 1.618499,1.722815 1.064087,4.178098 -1.853613,8.208979 -2.591949,3.580846 -2.791939,5.3671 -0.54001,4.823201 0.311273,-0.07518 1.711996,-0.140382 3.112721,-0.144889 z M 181.2864,54.307139 c 3.27224,-1.499449 4.63459,-5.183805 3.92535,-10.615828 -0.62905,-4.817997 -1.0628,-5.023884 -4.42538,-2.100614 -0.23345,0.202952 -1.06115,0.863944 -1.83933,1.468871 -4.46203,3.4686 -5.47827,5.757696 -4.0654,9.157418 0.88368,2.126376 1.74782,1.735614 3.04544,-1.377139 1.10595,-2.652968 1.30362,-2.968591 1.91461,-3.057139 1.55036,-0.22469 0.37198,5.266193 -1.35987,6.336533 -1.35003,0.834365 1.0438,0.994746 2.80458,0.187898 z"
       id="path16356"
       sodipodi:nodetypes="sssssssszcsssssssssssssssssssssssssssssssssssssccscssssscssssssssssssssssssssssssscssssssssssssssssssssssssscsscsssssssssssssscsssssssssssssssssscscssssssssssssssssssszzsssscsccsssssssssssssssssssssssssccssssssssssssssssssssssssssssssssssssscssssssssssssssssssssssssssssscsssssssssssscssssssscssssssscssssssssscsssssssssssssssssssssssssssssss" /><path
       style="fill:#000000;fill-opacity:0;stroke:#000000;stroke-width:2.13902;stroke-linecap:round;stroke-linejoin:round"
       d="m 28.708082,60.740421 c 0.133987,-2.10132 1.205964,-3.954422 3.166265,-4.455187"
       id="path16358"
       sodipodi:nodetypes="cc" /><path
       style="fill:#000000;fill-opacity:0;stroke:#000000;stroke-width:2.13902;stroke-linecap:round;stroke-linejoin:round"
       d="m 43.936976,39.99158 c 0.133987,-2.10132 1.205964,-3.954422 3.166265,-4.455187"
       id="path16358-0"
       sodipodi:nodetypes="cc" /><path
       style="fill:#000000;fill-opacity:0;stroke:#000000;stroke-width:2.13902;stroke-linecap:round;stroke-linejoin:round"
       d="m 43.678702,50.532697 c 0.975907,-0.163555 1.672994,0.673647 1.841406,0.990657 0.168411,0.317011 0.318231,3.318705 -0.642709,4.121138 -0.960939,0.802434 -2.783749,0.666527 -3.556462,0.277384 -0.772714,-0.389142 -1.372433,-0.5838 -1.446362,-1.703933 -0.07392,-1.120132 2.828221,-3.521691 3.804127,-3.685246 z"
       id="path16407"
       sodipodi:nodetypes="zzzzzz" /></g></svg>
