<?xml version="1.0" standalone="no"?>
<!DOCTYPE svg PUBLIC "-//W3C//DTD SVG 20010904//EN"
 "http://www.w3.org/TR/2001/REC-SVG-20010904/DTD/svg10.dtd">
<svg shape-rendering="geometricPrecision" version="1.0" xmlns="http://www.w3.org/2000/svg"
 width="1800.000000pt" height="1800.000000pt" viewBox="77 28 1642 1691"
 preserveAspectRatio="xMidYMid meet">
<g transform="translate(0.000000,1800.000000) scale(0.100000,-0.100000)"
fill="#000000" stroke="none">
<path d="M5465 17220 c-94 -28 -144 -58 -213 -124 -62 -59 -113 -133 -140
-206 -37 -97 -41 -165 -48 -967 -6 -723 -6 -795 10 -868 41 -193 132 -320 286
-403 131 -71 316 -71 450 0 39 20 123 83 145 110 71 81 107 154 136 271 18 74
19 126 19 910 0 791 -1 835 -19 892 -45 140 -100 223 -199 298 -129 97 -287
130 -427 87z"/>
<path d="M12233 17220 c-128 -38 -228 -113 -300 -227 -42 -65 -51 -85 -76
-173 -14 -48 -16 -160 -17 -920 -1 -838 0 -867 19 -920 64 -180 175 -298 335
-356 116 -42 285 -29 389 29 38 21 110 81 147 121 46 51 67 87 103 171 l30 70
8 340 c13 579 11 1359 -4 1440 -59 307 -358 507 -634 425z"/>
<path d="M2665 15859 c-297 -14 -632 -106 -780 -214 -16 -12 -35 -24 -42 -26
-31 -10 -161 -131 -213 -198 -94 -120 -94 -120 -147 -231 -83 -172 -94 -207
-158 -510 -8 -41 -15 -95 -15 -120 0 -25 -5 -72 -11 -105 -11 -62 -20 -267
-39 -907 -12 -426 -10 -9760 3 -10103 4 -115 9 -284 12 -375 4 -151 10 -232
35 -455 12 -110 35 -243 47 -285 13 -40 31 -109 42 -160 4 -19 19 -59 34 -88
15 -30 27 -59 27 -66 0 -18 88 -164 139 -231 99 -129 248 -253 377 -312 29
-13 56 -29 59 -34 4 -5 15 -9 25 -9 10 0 31 -6 47 -14 28 -14 85 -31 198 -59
84 -22 274 -46 445 -57 203 -14 12253 -13 12466 0 353 22 582 73 769 170 165
85 261 163 381 306 19 23 34 44 34 48 0 4 11 22 24 39 26 35 60 100 98 187 38
87 44 103 104 316 8 28 14 65 14 83 0 18 6 62 14 99 22 103 38 311 46 597 11
340 10 10541 0 10880 -14 480 -60 810 -136 993 -8 18 -14 39 -14 47 0 7 -11
35 -24 62 -14 27 -30 60 -36 73 -35 79 -132 212 -211 291 -114 113 -234 190
-404 256 -112 44 -108 43 -260 73 -33 6 -80 16 -105 22 -85 20 -395 27 -1231
27 -658 1 -839 -2 -846 -11 -7 -8 -13 -232 -17 -588 -3 -316 -10 -598 -15
-626 -14 -75 -64 -195 -113 -267 -137 -202 -348 -341 -631 -415 -95 -24 -117
-26 -307 -26 -221 0 -284 10 -453 71 -229 82 -444 263 -536 451 -79 161 -83
208 -75 850 6 461 5 545 -7 553 -8 5 -990 9 -2310 9 -1849 0 -2299 -2 -2307
-13 -7 -8 -12 -209 -14 -607 l-4 -595 -30 -86 c-45 -126 -97 -213 -186 -305
-150 -156 -323 -250 -568 -311 -109 -26 -452 -26 -560 1 -244 61 -423 158
-566 308 -70 73 -113 133 -148 209 -62 132 -60 99 -66 774 l-5 620 -850 1
c-467 0 -917 -3 -1000 -7z m13034 -4413 c17 -20 10 -7470 -7 -7721 -21 -297
-60 -560 -102 -680 -12 -33 -24 -69 -27 -80 -14 -52 -102 -215 -153 -284 -155
-208 -374 -335 -685 -395 -217 -42 -92 -41 -5755 -41 -5542 0 -5463 0 -5685
35 -170 27 -240 48 -375 114 -125 60 -200 116 -293 216 -60 65 -167 224 -167
249 0 6 -10 29 -22 52 -23 45 -54 146 -68 221 -5 27 -12 52 -15 58 -3 6 -10
40 -15 78 -5 37 -13 101 -19 142 -34 250 -35 333 -38 4184 -2 2174 0 3803 5
3808 5 5 1321 13 3028 18 1660 5 3348 12 3749 16 402 4 1824 10 3160 14 1337
3 2665 7 2951 8 433 2 524 0 533 -12z"/>
</g>
</svg>
