<?xml version="1.0" encoding="UTF-8" standalone="no"?>
<svg
   shape-rendering="geometricPrecision"
   version="1.0"
   width="1800.000000pt"
   height="1800.000000pt"
   viewBox="77 28 1642 1691"
   preserveAspectRatio="xMidYMid meet"
   id="svg457"
   sodipodi:docname="calendar.svg"
   inkscape:version="1.2.2 (732a01da63, 2022-12-09)"
   xmlns:inkscape="http://www.inkscape.org/namespaces/inkscape"
   xmlns:sodipodi="http://sodipodi.sourceforge.net/DTD/sodipodi-0.dtd"
   xmlns="http://www.w3.org/2000/svg"
   xmlns:svg="http://www.w3.org/2000/svg">
  <defs
     id="defs461" />
  <sodipodi:namedview
     id="namedview459"
     pagecolor="#ffffff"
     bordercolor="#000000"
     borderopacity="0.25"
     inkscape:showpageshadow="2"
     inkscape:pageopacity="0.0"
     inkscape:pagecheckerboard="0"
     inkscape:deskcolor="#d1d1d1"
     inkscape:document-units="pt"
     showgrid="false"
     inkscape:zoom="0.16791667"
     inkscape:cx="803.97023"
     inkscape:cy="1095.7816"
     inkscape:window-width="1920"
     inkscape:window-height="1009"
     inkscape:window-x="-8"
     inkscape:window-y="148"
     inkscape:window-maximized="1"
     inkscape:current-layer="layer1" />
  <g
     transform="matrix(0.1,0,0,-0.1,0.00444595,1799.6154)"
     fill="#000000"
     stroke="none"
     id="g455"
     style="display:none;fill:#000000;fill-opacity:0.589655">
    <path
       d="m 5465,17220 c -94,-28 -144,-58 -213,-124 -62,-59 -113,-133 -140,-206 -37,-97 -41,-165 -48,-967 -6,-723 -6,-795 10,-868 41,-193 132,-320 286,-403 131,-71 316,-71 450,0 39,20 123,83 145,110 71,81 107,154 136,271 18,74 19,126 19,910 0,791 -1,835 -19,892 -45,140 -100,223 -199,298 -129,97 -287,130 -427,87 z"
       id="path449"
       style="fill:#000000;fill-opacity:0.589655" />
    <path
       d="m 12233,17220 c -128,-38 -228,-113 -300,-227 -42,-65 -51,-85 -76,-173 -14,-48 -16,-160 -17,-920 -1,-838 0,-867 19,-920 64,-180 175,-298 335,-356 116,-42 285,-29 389,29 38,21 110,81 147,121 46,51 67,87 103,171 l 30,70 8,340 c 13,579 11,1359 -4,1440 -59,307 -358,507 -634,425 z"
       id="path451"
       style="fill:#000000;fill-opacity:0.589655" />
    <path
       d="m 2665,15859 c -297,-14 -632,-106 -780,-214 -16,-12 -35,-24 -42,-26 -31,-10 -161,-131 -213,-198 -94,-120 -94,-120 -147,-231 -83,-172 -94,-207 -158,-510 -8,-41 -15,-95 -15,-120 0,-25 -5,-72 -11,-105 -11,-62 -20,-267 -39,-907 -12,-426 -10,-9760 3,-10103 4,-115 9,-284 12,-375 4,-151 10,-232 35,-455 12,-110 35,-243 47,-285 13,-40 31,-109 42,-160 4,-19 19,-59 34,-88 15,-30 27,-59 27,-66 0,-18 88,-164 139,-231 99,-129 248,-253 377,-312 29,-13 56,-29 59,-34 4,-5 15,-9 25,-9 10,0 31,-6 47,-14 28,-14 85,-31 198,-59 84,-22 274,-46 445,-57 203,-14 12253,-13 12466,0 353,22 582,73 769,170 165,85 261,163 381,306 19,23 34,44 34,48 0,4 11,22 24,39 26,35 60,100 98,187 38,87 44,103 104,316 8,28 14,65 14,83 0,18 6,62 14,99 22,103 38,311 46,597 11,340 10,10541 0,10880 -14,480 -60,810 -136,993 -8,18 -14,39 -14,47 0,7 -11,35 -24,62 -14,27 -30,60 -36,73 -35,79 -132,212 -211,291 -114,113 -234,190 -404,256 -112,44 -108,43 -260,73 -33,6 -80,16 -105,22 -85,20 -395,27 -1231,27 -658,1 -839,-2 -846,-11 -7,-8 -13,-232 -17,-588 -3,-316 -10,-598 -15,-626 -14,-75 -64,-195 -113,-267 -137,-202 -348,-341 -631,-415 -95,-24 -117,-26 -307,-26 -221,0 -284,10 -453,71 -229,82 -444,263 -536,451 -79,161 -83,208 -75,850 6,461 5,545 -7,553 -8,5 -990,9 -2310,9 -1849,0 -2299,-2 -2307,-13 -7,-8 -12,-209 -14,-607 l -4,-595 -30,-86 c -45,-126 -97,-213 -186,-305 -150,-156 -323,-250 -568,-311 -109,-26 -452,-26 -560,1 -244,61 -423,158 -566,308 -70,73 -113,133 -148,209 -62,132 -60,99 -66,774 l -5,620 -850,1 c -467,0 -917,-3 -1000,-7 z m 13034,-4413 c 17,-20 10,-7470 -7,-7721 -21,-297 -60,-560 -102,-680 -12,-33 -24,-69 -27,-80 -14,-52 -102,-215 -153,-284 -155,-208 -374,-335 -685,-395 -217,-42 -92,-41 -5755,-41 -5542,0 -5463,0 -5685,35 -170,27 -240,48 -375,114 -125,60 -200,116 -293,216 -60,65 -167,224 -167,249 0,6 -10,29 -22,52 -23,45 -54,146 -68,221 -5,27 -12,52 -15,58 -3,6 -10,40 -15,78 -5,37 -13,101 -19,142 -34,250 -35,333 -38,4184 -2,2174 0,3803 5,3808 5,5 1321,13 3028,18 1660,5 3348,12 3749,16 402,4 1824,10 3160,14 1337,3 2665,7 2951,8 433,2 524,0 533,-12 z"
       id="path453"
       style="fill:#000000;fill-opacity:0.589655" />
  </g>
  <g
     inkscape:groupmode="layer"
     id="layer1"
     inkscape:label="Layer 1">
    <path
       id="rect1365"
       style="color:#000000;fill:#000000;stroke-linecap:round;-inkscape-stroke:none"
       d="M 384.1482 201.27521 C 240.49631 201.27521 123.1854 318.58612 123.1854 462.23801 L 123.1854 1411.6874 C 123.1854 1555.3394 240.4963 1672.6503 384.1482 1672.6503 L 1411.849 1672.6503 C 1555.5011 1672.6503 1672.8146 1555.3394 1672.8146 1411.6874 L 1672.8146 462.23801 C 1672.8146 318.58614 1555.5011 201.27521 1411.849 201.27521 L 1346.8815 201.27521 L 1346.8815 327.22085 A 112.17485 73.318956 0 0 1 1234.7083 400.5388 A 112.17485 73.318956 0 0 1 1122.5323 327.22085 L 1122.5323 201.27521 L 670.69481 201.27521 L 670.69481 326.20802 A 112.17485 73.318956 0 0 1 558.52157 399.52597 A 112.17485 73.318956 0 0 1 446.34557 326.20802 L 446.34557 201.27521 L 384.1482 201.27521 z M 1566.2932 663.15435 L 1566.2932 1411.6874 C 1566.2932 1498.1701 1498.3318 1566.1316 1411.849 1566.1316 L 384.1482 1566.1316 C 297.66582 1566.1316 229.70546 1498.1701 229.70546 1411.6874 L 229.70546 663.3883 L 1566.2932 663.15435 z " />
    <path
       style="fill:#000000;fill-opacity:0.589655;stroke:#000000;stroke-width:106.51968504;stroke-linecap:round;stroke-dasharray:none;stroke-opacity:1"
       d="M 558.51539,129.02249 V 284.40168"
       id="path1127" />
    <path
       style="fill:#000000;fill-opacity:0.589655;stroke:#000000;stroke-width:106.52;stroke-linecap:round;stroke-dasharray:none;stroke-opacity:1"
       d="M 1234.7065,130.03488 V 285.41407"
       id="path1127-2" />
  </g>
</svg>
