<?xml version="1.0" encoding="UTF-8" standalone="no"?>
<svg
   shape-rendering="geometricPrecision"
   version="1.0"
   width="600.000000pt"
   height="600.000000pt"
   viewBox="59 59 481 482"
   preserveAspectRatio="xMidYMid meet"
   id="svg1259"
   sodipodi:docname="clock.svg"
   inkscape:version="1.2.2 (732a01da63, 2022-12-09)"
   xmlns:inkscape="http://www.inkscape.org/namespaces/inkscape"
   xmlns:sodipodi="http://sodipodi.sourceforge.net/DTD/sodipodi-0.dtd"
   xmlns="http://www.w3.org/2000/svg"
   xmlns:svg="http://www.w3.org/2000/svg">
  <defs
     id="defs1263" />
  <sodipodi:namedview
     id="namedview1261"
     pagecolor="#ffffff"
     bordercolor="#000000"
     borderopacity="0.25"
     inkscape:showpageshadow="2"
     inkscape:pageopacity="0.0"
     inkscape:pagecheckerboard="0"
     inkscape:deskcolor="#d1d1d1"
     inkscape:document-units="pt"
     showgrid="false"
     inkscape:zoom="3.542605"
     inkscape:cx="317.56293"
     inkscape:cy="220.74152"
     inkscape:window-width="2560"
     inkscape:window-height="1369"
     inkscape:window-x="1912"
     inkscape:window-y="-8"
     inkscape:window-maximized="1"
     inkscape:current-layer="svg1259" />
  <g
     transform="translate(0.000000,600.000000) scale(0.066667,-0.066667)"
     fill="#000000"
     stroke="none"
     id="g1257">
    <path
       d="M4050 7867 c-2759 -383 -3926 -3728 -1996 -5726 2090 -2166 5767 -732 5832 2274 46 2096 -1778 3738 -3836 3452z m685 -502 c2265 -201 3422 -2798 2054 -4610 -1272 -1684 -3894 -1446 -4853 440 -1018 2003 569 4367 2799 4170z"
       id="path1253" />
    <path
       d="m 4257.2446,6479.1201 c -2.6718,-277.1151 -1.1828,-1903.7838 -2,-2103.1252 203.2436,-260.2964 423.4687,-546.7236 640.7554,-811.0473 300,-366.3748 358,-409.4776 504,-372.9338 196,49.662 256,248.3102 124,410.4145 -272.9914,332.1155 -484.5004,587.1976 -770,932.3346 4.8557,697.6674 10.0982,1674.3645 3,1950.0335 -7.0982,275.669 -497.0836,271.4387 -499.7554,-5.6763 z"
       id="path1255"
       style="stroke-width:0.967998"
       sodipodi:nodetypes="zccccczz" />
  </g>
</svg>
