<?xml version="1.0" encoding="UTF-8" standalone="no"?>
<!-- Created with Inkscape (http://www.inkscape.org/) -->

<svg
   width="200mm"
   height="200mm"
   viewBox="0 0 200 200"
   version="1.1"
   id="svg9470"
   xml:space="preserve"
   inkscape:version="1.2.2 (732a01da63, 2022-12-09)"
   sodipodi:docname="color-picker.svg"
   xmlns:inkscape="http://www.inkscape.org/namespaces/inkscape"
   xmlns:sodipodi="http://sodipodi.sourceforge.net/DTD/sodipodi-0.dtd"
   xmlns="http://www.w3.org/2000/svg"
   xmlns:svg="http://www.w3.org/2000/svg"><sodipodi:namedview
     id="namedview9472"
     pagecolor="#ffffff"
     bordercolor="#000000"
     borderopacity="0.25"
     inkscape:showpageshadow="2"
     inkscape:pageopacity="0.0"
     inkscape:pagecheckerboard="0"
     inkscape:deskcolor="#d1d1d1"
     inkscape:document-units="mm"
     showgrid="false"
     inkscape:zoom="0.89263468"
     inkscape:cx="379.77462"
     inkscape:cy="345.04597"
     inkscape:window-width="1920"
     inkscape:window-height="1009"
     inkscape:window-x="-8"
     inkscape:window-y="148"
     inkscape:window-maximized="1"
     inkscape:current-layer="layer1" /><defs
     id="defs9467" /><g
     inkscape:label="Layer 1"
     inkscape:groupmode="layer"
     id="layer1"><path
       style="fill:#000000;stroke-width:0.443773"
       d="M 16.139846,198.95941 C 7.3646109,196.61862 2.9401104,192.38966 0.84310248,184.33872 -1.5211865,175.26161 0.71105886,170.23886 12.371863,158.39794 l 8.521963,-8.65356 0.254989,-3.15962 c 0.629889,-7.80499 0.741404,-7.93848 36.427292,-43.61094 L 87.93846,72.622899 86.034995,69.842597 C 74.220472,52.585718 90.551438,30.030315 109.99795,36.746337 l 2.21886,0.766309 14.64453,-14.496719 c 10.06558,-9.963995 15.61582,-15.1232942 17.75093,-16.5006558 26.2934,-16.9617902 61.05262,6.6083178 54.60556,37.0278438 -1.89712,8.951328 -3.44357,11.077594 -20.91948,28.76278 l -15.129,15.310185 0.79019,2.440754 c 6.37434,19.688826 -17.85356,36.696336 -33.18459,23.294936 l -1.69475,-1.48143 -31.729802,31.63654 -31.729805,31.63653 -3.851661,1.89107 c -3.157386,1.5502 -4.437249,1.93032 -7.100379,2.1088 l -3.248711,0.21774 -8.431702,8.31015 c -11.987309,11.8145 -16.990086,13.9179 -26.848294,11.28824 z M 105.45248,115.45968 118.65242,102.25426 108.55356,92.162562 98.454706,82.070869 75.160747,105.368 51.866779,128.66513 H 72.059667 92.25255 Z"
       id="path9603" /></g></svg>
