<?xml version="1.0" encoding="UTF-8" standalone="no"?>
<!-- Created with Inkscape (http://www.inkscape.org/) -->

<svg
   width="115.81566mm"
   height="128.54898mm"
   viewBox="0 0 115.81566 128.54898"
   version="1.1"
   id="svg5"
   xml:space="preserve"
   inkscape:version="1.2.2 (732a01da63, 2022-12-09)"
   sodipodi:docname="hand.svg"
   xmlns:inkscape="http://www.inkscape.org/namespaces/inkscape"
   xmlns:sodipodi="http://sodipodi.sourceforge.net/DTD/sodipodi-0.dtd"
   xmlns="http://www.w3.org/2000/svg"
   xmlns:svg="http://www.w3.org/2000/svg"><sodipodi:namedview
     id="namedview7"
     pagecolor="#ffffff"
     bordercolor="#000000"
     borderopacity="0.25"
     inkscape:showpageshadow="2"
     inkscape:pageopacity="0.0"
     inkscape:pagecheckerboard="0"
     inkscape:deskcolor="#d1d1d1"
     inkscape:document-units="mm"
     showgrid="false"
     inkscape:zoom="0.89263468"
     inkscape:cx="148.99712"
     inkscape:cy="301.35509"
     inkscape:window-width="2560"
     inkscape:window-height="1369"
     inkscape:window-x="1912"
     inkscape:window-y="-8"
     inkscape:window-maximized="1"
     inkscape:current-layer="layer1" /><defs
     id="defs2" /><g
     inkscape:label="Layer 1"
     inkscape:groupmode="layer"
     id="layer1"
     transform="translate(-52.346616,-68.801966)"><path
       style="fill:#000000;stroke-width:0.264583"
       d="m 109.8707,197.07691 c -4.45411,-0.57058 -10.64816,-2.62876 -14.423896,-4.79283 -4.879909,-2.79693 -39.023452,-24.9729 -40.086299,-26.03574 -0.640143,-0.64015 -1.550228,-1.94865 -2.022412,-2.90779 -0.719752,-1.46203 -0.876355,-2.11703 -0.968887,-4.05242 -0.138602,-2.89897 0.345219,-4.68217 1.878137,-6.92219 2.500911,-3.65452 7.101843,-5.42684 11.297598,-4.35194 1.122585,0.2876 4.283538,1.80659 9.151501,4.39775 4.090119,2.17713 7.607717,3.95841 7.816892,3.95841 0.667501,0 1.556387,-0.8039 1.556387,-1.40758 0,-0.3211 -5.186052,-16.8938 -11.524561,-36.82822 C 64.985307,94.358845 60.969258,81.343655 60.871367,80.301995 c -0.28067,-2.98662 0.903361,-6.17245 3.116569,-8.38566 5.286881,-5.28688 14.23552,-3.60463 17.262793,3.24523 0.349226,0.7902 3.239722,9.67112 6.423329,19.73537 l 5.788371,18.298665 0.705898,-1.55189 c 3.261704,-7.17071 12.722113,-8.5368 18.053563,-2.60695 0.63984,0.71166 1.38368,1.82971 1.65298,2.48455 0.2693,0.65484 0.55988,1.19107 0.64573,1.19161 0.0858,5.3e-4 0.3094,-0.46356 0.49679,-1.03134 0.82213,-2.49108 3.70576,-5.18025 6.58537,-6.14126 2.51054,-0.83785 5.70933,-0.64139 8.01165,0.49204 2.0945,1.03112 4.00393,2.89614 5.02644,4.90952 l 0.77969,1.53526 0.92619,-1.85133 c 1.07697,-2.15275 2.83239,-3.87048 5.08672,-4.97752 1.37174,-0.67362 1.76563,-0.73958 4.41648,-0.73958 2.60806,0 3.06854,0.0741 4.43247,0.71328 1.9542,0.91581 4.24829,3.08905 5.08167,4.814 0.52314,1.0828 8.35719,25.65106 11.35665,35.61542 1.22859,4.08145 1.55874,6.81257 1.40732,11.64167 -0.18495,5.89811 -1.06302,9.39945 -3.67806,14.66637 -3.57854,7.20746 -8.7641,12.37193 -15.95422,15.88932 -2.69521,1.31849 -5.44366,2.31379 -12.7,4.5991 -5.09323,1.60405 -10.00136,3.10395 -10.90695,3.33311 -4.40227,1.11398 -10.48379,1.47678 -15.01811,0.89593 z"
       id="path302" /></g></svg>
