<?xml version="1.0" encoding="UTF-8" standalone="no"?>
<!-- Created with Inkscape (http://www.inkscape.org/) -->

<svg
   width="138.50099mm"
   height="193.53403mm"
   viewBox="0 0 138.50099 193.53403"
   version="1.1"
   id="svg14354"
   xml:space="preserve"
   inkscape:version="1.2.2 (732a01da63, 2022-12-09)"
   sodipodi:docname="honey-bunny.svg"
   xmlns:inkscape="http://www.inkscape.org/namespaces/inkscape"
   xmlns:sodipodi="http://sodipodi.sourceforge.net/DTD/sodipodi-0.dtd"
   xmlns="http://www.w3.org/2000/svg"
   xmlns:svg="http://www.w3.org/2000/svg"><sodipodi:namedview
     id="namedview14356"
     pagecolor="#ffffff"
     bordercolor="#000000"
     borderopacity="0.25"
     inkscape:showpageshadow="2"
     inkscape:pageopacity="0.0"
     inkscape:pagecheckerboard="0"
     inkscape:deskcolor="#d1d1d1"
     inkscape:document-units="mm"
     showgrid="false"
     inkscape:zoom="1"
     inkscape:cx="-120.5"
     inkscape:cy="317"
     inkscape:window-width="2560"
     inkscape:window-height="1369"
     inkscape:window-x="1912"
     inkscape:window-y="-8"
     inkscape:window-maximized="1"
     inkscape:current-layer="layer1" /><defs
     id="defs14351" /><g
     inkscape:label="Layer 1"
     inkscape:groupmode="layer"
     id="layer1"
     transform="translate(-30.749507,-3.2329908)"><path
       style="fill:#000000;stroke-width:0.341048"
       d="m 118.55274,196.38569 c -5.11755,-1.45713 -9.29069,-6.20041 -9.80044,-11.13942 -0.22605,-2.19027 -0.63494,-2.45445 -2.38978,-1.54401 -5.2495,2.72347 -13.582544,2.28979 -21.403095,-1.11388 -0.562728,-0.24492 -2.409676,-1.04882 -4.104329,-1.78647 -9.736353,-3.41697 -20.264112,-6.29909 -26.73082,-13.35602 -1.783757,-1.81155 -1.910249,-1.87597 -3.751538,-1.91018 -2.368327,-0.044 -4.425692,-0.4559 -5.306647,-1.06247 -0.878878,-0.60512 -1.698609,-0.58731 -2.226194,0.0483 -1.295892,1.56146 -4.432324,-0.0897 -6.094655,-3.20862 -0.983196,-1.84466 -1.223682,-2.07764 -2.144622,-2.07764 -3.343047,0 -4.525428,-5.24471 -2.468142,-10.94798 1.045793,-2.89918 1.028578,-3.24914 -0.190849,-3.87973 -3.702737,-1.91477 1.756756,-10.38977 8.997764,-13.96762 2.702095,-1.33512 3.696143,-2.56454 4.426526,-5.47462 0.765946,-3.05178 7.150756,-13.7482 11.184165,-18.73676 3.880287,-4.79915 4.427804,-6.585303 1.564837,-5.1048 -2.659384,1.37522 -5.998932,0.42424 -7.110938,-2.024953 -1.345761,-2.96402 -0.898954,-5.35009 3.587343,-19.15741 1.584645,-4.876994 4.098104,-12.62733 5.585447,-17.222964 C 67.463548,40.203748 73.054768,29.320616 82.06052,20.122395 84.978309,17.14224 92.650084,11.745515 94.94384,11.059592 97.809939,10.202513 99.014912,8.47143 97.555451,7.307695 96.622973,6.56416 96.976319,5.2487843 97.83064,4.740137 c 4.23933,-2.7697389 11.22199,-1.286175 14.81702,1.790183 0.46376,0.419812 2.11716,0.970942 4.37619,1.458719 1.99695,0.431187 4.04036,0.938181 4.54089,1.126652 0.50054,0.188471 1.63587,0.428739 2.52296,0.53393 3.6221,0.429506 12.20347,5.827877 14.53686,9.144847 0.25383,0.360822 1.04857,1.273171 1.76609,2.027441 1.77322,1.864051 7.52087,9.488015 9.98789,13.24843 4.26676,5.274191 7.27268,10.152085 10.6284,14.99909 6.93077,7.907253 8.33728,29.633728 3.66182,38.748398 -2.63687,5.14052 -7.08744,4.70068 -9.99135,-0.98742 -1.46766,-2.87479 -3.23552,-7.39442 -4.22878,-10.811058 -1.26049,-4.335853 -1.73584,-4.784906 -3.79048,-3.580801 -2.20438,1.291848 -2.18642,1.449468 0.64984,5.705133 2.48138,3.723216 5.69069,9.610096 5.69069,10.438516 0,0.22345 0.15235,0.67276 0.33854,0.99847 4.8666,8.51309 6.17679,33.384223 2.57343,48.850643 -0.28405,1.21924 -0.92627,3.95857 -1.42713,6.08737 -1.10888,4.71298 -0.96033,5.53379 1.07989,5.96703 15.82141,3.35958 18.97025,20.20201 3.91706,20.95146 -4.08908,0.20357 -3.96819,0.0777 -4.25502,4.43268 -0.54713,8.30721 -3.17963,12.48815 -8.96928,14.24502 -3.43357,1.04193 -8.62667,-0.22613 -10.30247,-2.51565 -1.00175,-1.36861 -2.08279,-1.43415 -2.59374,-0.15727 -2.7118,6.77691 -9.0249,10.59008 -14.80722,8.94365 z m 7.67964,-3.76057 c 4.49775,-2.53837 5.62401,-6.36991 4.94985,-16.83934 -0.64433,-10.00633 -1.03058,-13.4969 -2.07077,-18.71359 -1.28435,-6.44127 -1.37706,-11.58892 -0.28693,-15.93274 1.05498,-4.20384 1.52314,-4.7197 3.38087,-3.72547 0.5461,0.29226 0.73668,0.17164 1.21238,-0.76736 0.90587,-1.78813 1.52375,-2.30781 2.74397,-2.30781 1.46472,0 1.9915,-0.80341 2.6834,-4.09258 0.60916,-2.89583 1.28456,-4.16718 2.05645,-3.87098 0.95879,0.36793 1.19684,1.32799 0.8047,3.2454 -0.20464,1.00059 -0.48894,2.39196 -0.63179,3.09194 -0.14285,0.69998 -0.41431,1.46734 -0.60326,1.70525 -0.18894,0.2379 -0.52713,1.00267 -0.75152,1.69949 -0.59921,1.86075 -2.10826,3.33722 -3.41087,3.33722 -0.94098,0 -1.14718,0.18245 -1.72223,1.52402 -0.6384,1.48933 -0.88817,1.6582 -2.90351,1.96309 -1.6136,0.24413 -1.04173,13.12993 0.85177,19.19263 0.52437,1.67898 1.01822,6.91307 1.02121,10.8234 0.008,10.57762 5.89121,17.20178 12.68937,14.28773 5.29714,-2.2706 7.28748,-8.87253 5.92848,-19.66469 -0.30636,-2.43281 -0.61089,-5.11391 -0.67675,-5.95802 -0.0659,-0.84409 -0.30934,-2.81691 -0.54104,-4.38404 -0.58292,-3.94248 -0.28485,-8.74891 0.77504,-12.49787 3.02987,-10.71699 4.54333,-27.37945 3.33008,-36.66275 -2.47164,-18.912083 -9.58107,-33.085722 -16.34432,-32.584708 -1.80526,0.133733 -7.11909,0.227729 -11.80852,0.208885 -10.15373,-0.0408 -11.04005,0.13083 -18.41665,3.56634 -6.02962,2.80818 -12.460508,4.60464 -17.33387,4.84219 -4.880038,0.23788 -5.099736,0.37714 -6.066385,3.84539 -6.295519,22.587973 -1.000499,45.298063 15.807615,67.798123 7.58959,10.15974 9.25947,14.36718 10.17996,25.64928 0.87287,10.69844 7.44997,15.56904 15.15327,11.22157 z m -22.99839,-10.35764 c 12.26347,-4.30139 -0.85689,-19.79475 -15.819465,-18.68064 -3.257389,0.24256 -5.004169,-0.90026 -3.376635,-2.20914 1.648455,-1.32572 14.850584,0.20721 16.97594,1.9711 2.61133,2.16722 1.5756,-0.87112 -1.865364,-5.47211 -4.717469,-6.30783 -7.966931,-11.39274 -10.4218,-16.30855 -4.474389,-8.95988 -7.503122,-18.69144 -8.40496,-27.00589 -0.846837,-7.8073 1.075041,-23.605659 1.93152,-26.641993 0.723625,-2.565349 1.177492,-4.88774 -0.490556,-5.74327 -0.680284,-0.34891 -1.608934,-1.033 -2.063682,-1.5202 -1.375856,-1.47404 -2.319265,-1.12043 -3.191701,1.19633 -0.239819,0.6368 -0.738264,1.67207 -1.107667,2.30059 -2.655708,4.51847 -4.639304,7.69734 -5.957916,9.54801 -0.844091,1.18468 -2.148601,3.0253 -2.898917,4.09026 -1.46998,2.08645 -3.924423,5.328083 -4.734471,6.252923 -0.275086,0.31406 -0.676856,0.9012 -0.892828,1.30475 -0.215973,0.40355 -0.613914,0.99069 -0.884296,1.30474 -6.853408,7.96027 -12.414425,18.41961 -13.956896,26.25055 -2.534907,12.86941 4.024537,29.23718 14.64534,36.54447 4.80526,3.0726 10.056854,5.19405 15.202005,6.70871 1.78197,0.51541 4.314256,1.42974 5.627299,2.03184 9.145094,4.19358 17.093218,5.68809 21.68505,4.07752 z m 58.09525,-13.46851 c 7.42681,-1.72245 6.62653,-10.159 -1.33906,-14.11659 -5.88855,-2.92566 -6.73059,-2.34571 -6.11548,4.21195 1.00302,10.69312 1.45655,11.29571 7.45454,9.90464 z M 49.244763,162.21956 c 0.244765,-0.29856 0.180621,-0.74416 -0.214024,-1.48687 -3.63699,-6.84463 -4.25634,-8.48574 -5.520478,-14.6277 -0.542723,-2.63689 -0.686461,-4.48978 -0.633681,-8.16868 0.09332,-6.50466 -0.373974,-6.6677 -5.550697,-1.93646 -4.249076,3.88342 -4.925637,6.33718 -1.640021,5.94804 2.008873,-0.23792 2.733666,0.95175 1.453318,2.38548 -2.456076,2.7503 -4.277509,9.28509 -3.054291,10.95794 0.532908,0.7288 1.662984,0.3131 2.279263,-0.83844 1.115693,-2.08469 2.490655,-0.62566 2.416689,2.56445 -0.08532,3.67995 1.122279,5.60884 2.783162,4.44552 1.037392,-0.72661 2.21115,-0.62977 4.004285,0.33041 1.69966,0.91011 3.142649,1.07744 3.676475,0.42631 z m 8.591153,-64.154193 c 3.320577,-1.91073 8.710519,-7.04333 11.065232,-10.53692 2.809422,-4.16825 4.504693,-10.492459 4.988701,-18.610414 0.478478,-8.025034 2.356466,-12.606309 7.099999,-17.320126 1.89945,-1.887552 2.086007,-2.605873 1.407708,-5.420242 -1.086566,-4.508257 -1.062371,-16.11404 0.04125,-19.813889 0.658359,-2.207059 0.20392,-2.879801 -1.108569,-1.64108 -3.192552,3.013116 -10.257825,14.814492 -11.721734,19.5792 -0.144084,0.468943 -0.616401,1.619982 -1.049609,2.557867 -0.808077,1.749478 -1.950482,4.873821 -2.556417,6.991501 -0.187846,0.656519 -0.554735,1.730824 -0.815294,2.387343 -0.45052,1.135095 -0.899338,2.530572 -4.277932,13.300905 -0.794362,2.532289 -2.131032,6.599296 -2.970367,9.037795 -0.839335,2.4385 -1.746956,5.12426 -2.016944,5.96836 -0.269987,0.84409 -0.65494,1.99513 -0.855448,2.55786 -3.190694,8.95465 -1.991508,13.701343 2.769362,10.96184 z M 160.96431,87.933777 c 3.05079,-2.39975 2.03731,-9.17801 -2.7503,-18.394265 -3.75932,-7.236807 -4.77162,-8.253372 -5.39453,-5.417305 -0.12735,0.580141 -0.54958,1.767789 -0.93812,2.639216 -0.91282,2.047252 -0.82558,3.025554 0.63259,7.093834 0.66194,1.846821 1.36469,3.895006 1.56168,4.55153 0.19698,0.65651 0.47568,1.34714 0.6193,1.53472 0.14363,0.18757 0.45837,0.95493 0.69941,1.70524 1.62131,5.04665 3.89056,7.60805 5.56997,6.28703 z m -65.01778,-6.98426 c 3.115663,-0.60329 7.25156,-2.08975 15.6147,-5.612011 4.55311,-1.917605 5.70712,-2.067396 15.96711,-2.072539 9.15153,-0.0046 10.03946,-0.0797 14.02108,-1.185947 8.14701,-2.263575 11.98601,-13.838044 6.83758,-20.615097 -0.21376,-0.281365 -0.78873,-1.202198 -1.27774,-2.046293 -1.68083,-2.901385 -5.86945,-6.659951 -8.40826,-7.544988 -1.14945,-0.400704 -1.49212,-1.181951 -3.94564,-8.995883 -2.80306,-14.026927 -7.6457,-19.170884 -19.0757,-22.282891 -2.64727,-0.509438 -3.4092,-0.809747 -4.66476,-1.838581 -4.09644,-3.356727 -7.70639,-3.388409 -6.62482,-0.05813 0.22872,0.704252 -0.70485,1.242419 -4.02211,2.31858 -1.858682,0.602979 -0.454867,1.615715 2.326,1.678021 3.22954,0.07235 4.72657,0.676617 4.87719,1.96861 0.16364,1.40371 -0.61173,1.789491 -2.3676,1.177986 -2.32574,-0.80997 -5.68863,-0.299112 -6.793332,1.031979 -0.809559,0.975461 -2.571781,0.602982 -3.344668,-0.706958 -1.110644,-1.882401 -4.9015,0.383523 -7.013971,4.192492 -3.582849,6.460197 -4.453687,11.695055 -3.433737,20.641183 0.324725,2.848241 0.712432,6.250488 0.86157,7.560542 0.311191,2.733404 0.129635,3.234708 -1.546714,4.270749 -5.995027,3.705129 -9.160613,15.153027 -5.947269,21.507491 3.155803,6.240695 8.919608,8.362425 17.961091,6.611695 z m 7.40453,-11.233488 c -1.36811,-1.368107 -0.72694,-1.711237 3.19764,-1.711237 5.81468,0 7.88633,-1.714006 7.41307,-6.13329 -0.29311,-2.736927 -1.06224,-3.795539 -3.13732,-4.318046 -1.0307,-0.259535 -1.6273,-0.624252 -1.81044,-1.106761 -0.57285,-1.509347 0.91613,-1.960309 3.86682,-1.171122 1.44289,0.385918 1.55188,0.359994 2.86762,-0.682098 1.45937,-1.155844 2.80821,-1.388842 3.46421,-0.598411 0.49192,0.592719 -0.14392,1.801005 -1.10892,2.10728 -2.08093,0.660462 -2.25163,6.160815 -0.24914,8.027882 1.87781,1.75081 5.9135,1.707423 9.16696,-0.09856 1.90641,-1.058229 2.78579,-0.940035 2.78579,0.374421 0,2.347248 -5.22049,3.889304 -11.10469,3.280163 -2.37442,-0.245804 -2.44802,-0.228781 -5.28625,1.2226 -3.87238,1.980198 -8.51965,2.352882 -10.06535,0.807177 z M 90.378395,45.861059 c -1.745169,-4.547831 9.435648,-8.636776 12.327385,-4.508256 1.23439,1.762346 -0.3457,2.445244 -2.895024,1.251206 -2.508414,-1.174879 -5.166803,-0.356285 -7.020081,2.161679 -1.116999,1.517624 -2.082076,1.955848 -2.41228,1.095371 z m 27.193835,-6.595241 c -1.00055,-1.86953 2.87996,-4.513289 6.62461,-4.513289 2.66695,0 4.14655,0.601562 5.62708,2.287782 2.05387,2.339231 0.59647,3.22707 -2.16982,1.321848 -2.61731,-1.802607 -5.31902,-1.557479 -7.41416,0.672694 -0.91701,0.976103 -2.20906,1.087967 -2.66771,0.230965 z m 46.8151,34.508911 c 0.53726,-1.400067 0.18161,-7.144455 -0.66042,-10.667177 -1.85392,-7.756044 -3.36988,-10.738991 -9.90387,-19.487753 -2.52438,-3.38002 -4.00014,-5.449362 -6.6054,-9.262144 -5.43145,-7.948914 -7.39152,-10.42747 -11.89189,-15.037588 -1.94122,-1.988548 -2.79624,-2.636461 -3.45247,-2.616204 -1.13595,-0.212691 0.58881,2.53626 0.96154,3.308027 1.421,2.826008 2.82616,6.494364 4.27469,11.159626 2.49954,8.050264 2.32035,7.719179 5.17154,9.55451 4.77148,3.071435 8.14902,7.539913 10.04972,13.295763 0.43358,1.313038 1.20067,2.924494 1.70463,3.581013 2.01135,2.620217 5.22398,7.907852 7.40547,12.188554 2.34817,4.607819 2.58433,4.927076 2.94646,3.983373 z"
       id="path15697"
       sodipodi:nodetypes="cscsccsscsssssssssscsssccsssssccsssssscsscsssssccssssssssssssssssscsscssssssscsssssssssssssscscsssscccsssssscssssssssssscsssccsssscssscccsscsssscsssssscsccsssssssssscsssssssscssssssssssscssscsssssssssssccssssss" /></g></svg>
