<?xml version="1.0" encoding="UTF-8" standalone="no"?>
<svg
   shape-rendering="geometricPrecision"
   version="1.0"
   width="1800.000000pt"
   height="1800.000000pt"
   viewBox="102 287 1427 1410"
   preserveAspectRatio="xMidYMid meet"
   id="svg1406"
   sodipodi:docname="hook.svg"
   inkscape:version="1.2.2 (732a01da63, 2022-12-09)"
   xmlns:inkscape="http://www.inkscape.org/namespaces/inkscape"
   xmlns:sodipodi="http://sodipodi.sourceforge.net/DTD/sodipodi-0.dtd"
   xmlns="http://www.w3.org/2000/svg"
   xmlns:svg="http://www.w3.org/2000/svg">
  <defs
     id="defs1410" />
  <sodipodi:namedview
     id="namedview1408"
     pagecolor="#ffffff"
     bordercolor="#000000"
     borderopacity="0.25"
     inkscape:showpageshadow="2"
     inkscape:pageopacity="0.0"
     inkscape:pagecheckerboard="0"
     inkscape:deskcolor="#d1d1d1"
     inkscape:document-units="pt"
     showgrid="false"
     inkscape:zoom="0.20875"
     inkscape:cx="91.017964"
     inkscape:cy="234.73054"
     inkscape:window-width="2560"
     inkscape:window-height="1369"
     inkscape:window-x="1912"
     inkscape:window-y="-8"
     inkscape:window-maximized="1"
     inkscape:current-layer="svg1406" />
  <g
     transform="translate(0.000000,1800.000000) scale(0.100000,-0.100000)"
     fill="#000000"
     stroke="none"
     id="g1404">
    <path
       d="m 12959,14464 c -322.325,-243.43 -364.423,-400.053 -876.483,-1086.121 C 11570.457,12691.811 10367.108,11506.775 9490,10594 c 420.6448,-81.446 885.091,-463.529 1011,-909 741.493,768.199 1860.986,1825.33 2112,2133 309.955,453.074 259.994,448.356 445.706,1356.043 185.711,907.688 1040.888,882.029 1070.777,164.812 29.889,-717.217 -390.913,-536.209 -543.483,-710.855 -168.164,-251.56 -212.867,-557.537 41,-665 253.867,-107.463 601.932,114.367 789,317 187.068,202.633 283.454,313.232 417,770 133.546,456.768 -112.419,1353.9 -699,1559.859 -380.479,142.6 -852.675,97.571 -1175,-145.859 z"
       id="path1400"
       sodipodi:nodetypes="zzccczzczzzcz" />
    <path
       d="M 7576,9817 C 5886.1242,8085.7817 3275.1998,5542.6726 1734,3946 192.80018,2349.3274 2457.2194,245.99573 4005,1791 5552.7806,3336.0043 8131.6531,5868.3585 9916,7775 11427.268,9396.3658 9265.8758,11548.218 7576,9817 Z"
       id="path1402"
       sodipodi:nodetypes="zzzcz" />
  </g>
</svg>
