<?xml version="1.0" standalone="no"?>
<!DOCTYPE svg PUBLIC "-//W3C//DTD SVG 20010904//EN"
 "http://www.w3.org/TR/2001/REC-SVG-20010904/DTD/svg10.dtd">
<svg shape-rendering="geometricPrecision" version="1.0" xmlns="http://www.w3.org/2000/svg"
 width="1800.000000pt" height="1800.000000pt" viewBox="118 410 1270 1280"
 preserveAspectRatio="xMidYMid meet">
<g transform="translate(0.000000,1800.000000) scale(0.100000,-0.100000)"
fill="#000000" stroke="none">
<path d="M12735 13525 c-128 -14 -217 -32 -263 -51 -18 -8 -39 -14 -47 -14 -8
0 -29 -6 -47 -14 -18 -8 -53 -22 -78 -31 -130 -50 -434 -202 -480 -240 -8 -6
-22 -15 -30 -19 -67 -31 -350 -237 -509 -370 -412 -345 -792 -792 -1036 -1218
-17 -30 -147 -292 -161 -323 -7 -16 -29 -69 -49 -117 -33 -82 -73 -160 -117
-233 -10 -16 -21 -37 -25 -45 -6 -13 -108 -184 -146 -245 -18 -30 -159 -219
-171 -230 -6 -5 -47 -55 -91 -110 -44 -55 -85 -104 -91 -110 -6 -5 -26 -30
-44 -55 -19 -25 -41 -52 -49 -61 -17 -17 -27 -29 -101 -119 -65 -80 -84 -101
-96 -114 -5 -6 -48 -56 -94 -111 -46 -55 -89 -104 -95 -110 -7 -5 -35 -38 -63
-72 -28 -34 -66 -79 -85 -100 -19 -21 -56 -63 -83 -94 -104 -118 -169 -193
-180 -203 -5 -6 -43 -49 -84 -96 -69 -78 -129 -146 -155 -174 -6 -6 -51 -56
-100 -111 -49 -55 -112 -124 -140 -154 -27 -29 -54 -59 -60 -65 -115 -129
-248 -275 -315 -345 -14 -14 -70 -76 -125 -136 -55 -61 -124 -136 -155 -169
-30 -32 -60 -63 -65 -70 -22 -24 -280 -302 -290 -312 -20 -22 -424 -452 -450
-480 -24 -26 -319 -338 -400 -424 -50 -52 -122 -128 -160 -169 -39 -40 -81
-85 -95 -100 -14 -14 -100 -105 -190 -201 -90 -96 -207 -219 -260 -274 -52
-54 -106 -110 -120 -125 -14 -14 -100 -105 -190 -201 -90 -96 -176 -187 -190
-201 -63 -65 -373 -392 -440 -464 -65 -70 -178 -189 -260 -274 -14 -14 -86
-91 -160 -171 -74 -80 -146 -157 -160 -171 -82 -86 -172 -181 -290 -309 -74
-80 -157 -169 -185 -199 -27 -29 -55 -59 -60 -65 -6 -6 -65 -69 -130 -141 -66
-71 -124 -135 -130 -141 -19 -20 -181 -198 -345 -379 -90 -99 -197 -218 -239
-264 -42 -46 -85 -93 -96 -105 -11 -13 -65 -74 -120 -136 -55 -62 -105 -118
-110 -124 -6 -6 -44 -49 -84 -96 -41 -47 -77 -87 -81 -90 -3 -3 -48 -54 -99
-115 -52 -60 -99 -114 -105 -120 -7 -5 -67 -75 -136 -155 -68 -80 -128 -148
-132 -151 -5 -3 -19 -20 -33 -39 -42 -56 -30 -113 28 -133 24 -9 46 4 115 65
31 28 71 63 87 77 184 160 261 227 265 231 5 5 182 160 384 334 50 43 93 81
96 85 3 4 55 49 115 100 61 52 115 99 120 105 6 6 62 56 125 111 109 94 177
155 205 182 7 7 50 44 96 84 46 39 107 92 134 118 28 25 86 77 130 116 44 38
87 76 96 85 26 25 88 80 179 160 47 41 90 79 96 84 6 6 46 43 89 81 131 116
200 178 205 185 3 3 70 64 150 135 80 71 147 131 150 135 3 3 77 71 165 150
196 177 234 211 254 231 9 8 66 60 126 114 92 83 153 139 229 211 6 5 63 57
126 114 63 57 139 127 169 154 29 28 59 56 65 61 6 6 70 64 141 130 72 65 159
146 195 180 36 33 117 108 180 165 63 58 146 134 184 170 86 82 69 65 221 205
72 65 161 148 199 184 38 36 74 71 80 76 59 53 247 225 267 245 15 14 75 70
135 125 141 130 278 257 378 350 6 6 70 65 141 130 72 66 135 124 141 130 6 5
60 55 120 110 147 136 301 278 378 351 6 5 63 57 126 114 97 88 139 126 234
216 6 5 63 57 126 114 97 88 139 126 234 216 6 5 63 57 126 114 125 113 187
169 204 186 6 5 63 57 126 114 125 113 187 169 204 186 6 5 63 57 126 114 155
140 190 172 209 190 9 9 59 54 111 100 52 47 106 96 121 110 53 50 205 188
254 230 28 24 52 46 55 49 5 6 122 106 166 141 10 9 57 44 104 80 47 35 92 71
100 79 35 34 240 181 288 207 30 16 93 50 140 75 156 81 196 104 270 152 24
15 45 27 47 27 4 0 223 148 244 166 9 7 33 26 53 41 66 50 192 151 228 183
156 137 395 376 503 501 105 123 172 206 219 274 23 33 60 85 83 115 23 30 59
83 81 118 21 35 47 75 56 90 10 15 22 36 28 47 6 11 26 47 45 80 44 77 82 155
149 310 7 17 21 47 30 68 9 21 16 44 16 52 0 8 6 29 14 47 17 39 39 123 60
231 23 114 21 331 -4 425 -56 210 -190 354 -385 412 -51 15 -236 43 -262 39
-4 -1 -57 -7 -118 -14z m-71 -690 c110 -33 166 -117 166 -247 0 -88 -39 -246
-79 -326 -5 -9 -25 -51 -45 -92 -21 -41 -46 -88 -56 -105 -11 -16 -23 -37 -27
-45 -12 -26 -114 -172 -186 -265 -104 -137 -259 -300 -452 -479 -41 -39 -311
-246 -319 -246 -3 0 -24 -12 -48 -27 -73 -47 -80 -51 -173 -97 -148 -73 -261
-106 -364 -106 -162 0 -261 99 -261 262 0 226 196 608 484 943 90 105 341 353
426 420 41 33 77 63 80 66 19 24 367 249 385 249 3 0 33 13 67 28 163 74 303
97 402 67z"/>
</g>
</svg>
