<?xml version="1.0" encoding="UTF-8" standalone="no"?>
<svg
   shape-rendering="geometricPrecision"
   version="1.0"
   width="1800.000000pt"
   height="1800.000000pt"
   viewBox="130 33 1527 1738"
   preserveAspectRatio="xMidYMid meet"
   id="svg12"
   sodipodi:docname="pattern.svg"
   inkscape:version="1.2.2 (732a01da63, 2022-12-09)"
   xmlns:inkscape="http://www.inkscape.org/namespaces/inkscape"
   xmlns:sodipodi="http://sodipodi.sourceforge.net/DTD/sodipodi-0.dtd"
   xmlns="http://www.w3.org/2000/svg"
   xmlns:svg="http://www.w3.org/2000/svg">
  <defs
     id="defs16" />
  <sodipodi:namedview
     id="namedview14"
     pagecolor="#ffffff"
     bordercolor="#000000"
     borderopacity="0.25"
     inkscape:showpageshadow="2"
     inkscape:pageopacity="0.0"
     inkscape:pagecheckerboard="false"
     inkscape:deskcolor="#d1d1d1"
     inkscape:document-units="pt"
     showgrid="true"
     inkscape:zoom="0.074835468"
     inkscape:cx="-4944.1797"
     inkscape:cy="-1403.078"
     inkscape:window-width="2560"
     inkscape:window-height="1369"
     inkscape:window-x="1912"
     inkscape:window-y="-8"
     inkscape:window-maximized="1"
     inkscape:current-layer="g10">
    <inkscape:grid
       type="xygrid"
       id="grid442" />
  </sodipodi:namedview>
  <g
     transform="translate(0.000000,1800.000000) scale(0.100000,-0.100000)"
     fill="#B7718D"
     stroke="none"
     id="g10">
    <path
       d="M 3141.4621,17139.691 C 2430.9863,17134.016 1804.0268,16564.404 1799.991,15757.247 1795.9552,14950.089 1795,15419 1795,8990 1795,1879 1793.0459,2796.9544 1805.6457,2112.1257 1818.2455,1427.2971 2529.8708,838.14865 3275,816 c 4129.0587,-4.13717 10148.894,3.94623 11135.47,6.39748 986.576,2.45125 1654.563,840.62312 1659.202,1429.99282 4.639,589.3696 5.328,841.6097 5.328,5122.6097 0,0 1.553,4948.985 0,5064.955 -1.553,115.97 -90.966,170.707 -246.795,308.184 -155.829,137.477 -3241.692,2958.216 -4767.205,4283.861 -82,71 -162,110 -268,131 -2565.4256,-2.706 -6941.062,-17.634 -7651.5379,-23.309 z M 10190,14195 c 6,-2041 2,-1909 51,-2020 40,-91 156,-205 253,-249 124,-56 99,-55 1061,-60 1390,-8 3569,-27 3583,-32 10,-3 12,-839 10,-4356 -3,-4088 -3.686,-3866.6309 -21,-4468 -17.314,-601.3691 -107.494,-1101.4838 -1147,-1114 -1039.506,-12.5162 -5769.0121,-49.5273 -10100,-42.9275 -597.1279,1.0258 -1149.2581,-17.8879 -1156.9275,946.265 C 2715.4031,3763.4904 2725,2824 2725,8995 c 0,5553 -4.5725,4808.377 18,5990 22.5725,1181.623 279.1425,1123.09 1379.3453,1115.345 877.7088,1.241 3286.2837,-4.402 6062.6547,-5.345 z m 1087,1262 c 995.961,-840.534 1874.646,-1713.851 2851,-2523 52,-43 45,-44 -380,-44 -878,0 -2492,21 -2505,32 -11,8 -13,243 -13,1279 0,1252 0,1269 20,1269 10,0 23,-6 27,-13 z"
       id="path2"
       sodipodi:nodetypes="zzszczzszzcczcccccczzczszcccccscssc" />
    <path
       d="m 4348.9867,10651.073 c -717.671,2.872 -717.3518,-1000.5773 -60,-1006.0004 657.3518,-5.4231 8185.3093,-13.5577 8842.1683,-12.009 656.859,1.5487 655.511,1021.0654 -2.168,1020.5224 -2961.213,-2.445 -8062.3293,-5.385 -8780.0003,-2.513 z"
       id="path4"
       sodipodi:nodetypes="zzzsz" />
    <path
       d="m 4297.5873,7914.0647 c -650.0955,2.872 -649.8064,-1000.577 -54.3504,-1006.0001 595.456,-5.4231 7414.5851,-13.5577 8009.5941,-12.009 595.009,1.5487 593.789,1021.0651 -1.963,1020.5221 -2682.3874,-2.445 -7303.1851,-5.385 -7953.2807,-2.513 z"
       id="path4-2"
       sodipodi:nodetypes="zzzsz"
       style="stroke-width:0.951757" />
    <path
       d="m 4298.8851,5050.7766 c -668.1031,-1.4046 -646.5334,-1004.8535 -22.289,-1018.8298 624.2444,-13.9763 4512.9853,-26.3874 5175.4301,-12.009 662.4448,14.3784 657.3798,1016.7885 -1.2684,1020.5221 -1733.2087,9.8248 -4483.7697,11.7213 -5151.8727,10.3167 z"
       id="path4-2-5"
       sodipodi:nodetypes="zzzsz"
       style="stroke-width:0.765058" />
  </g>
</svg>
