<?xml version="1.0" encoding="UTF-8" standalone="no"?>
<!-- Created with Inkscape (http://www.inkscape.org/) -->

<svg
   width="200mm"
   height="200mm"
   viewBox="0 0 200 200"
   version="1.1"
   id="svg33841"
   xml:space="preserve"
   sodipodi:docname="paw.svg"
   inkscape:version="1.2.2 (732a01da63, 2022-12-09)"
   xmlns:inkscape="http://www.inkscape.org/namespaces/inkscape"
   xmlns:sodipodi="http://sodipodi.sourceforge.net/DTD/sodipodi-0.dtd"
   xmlns="http://www.w3.org/2000/svg"
   xmlns:svg="http://www.w3.org/2000/svg"><sodipodi:namedview
     id="namedview33843"
     pagecolor="#ffffff"
     bordercolor="#000000"
     borderopacity="0.25"
     inkscape:showpageshadow="2"
     inkscape:pageopacity="0.0"
     inkscape:pagecheckerboard="0"
     inkscape:deskcolor="#d1d1d1"
     inkscape:document-units="mm"
     showgrid="false"
     inkscape:zoom="0.63118804"
     inkscape:cx="175.85885"
     inkscape:cy="340.6275"
     inkscape:window-width="1920"
     inkscape:window-height="1009"
     inkscape:window-x="-8"
     inkscape:window-y="148"
     inkscape:window-maximized="1"
     inkscape:current-layer="layer1" /><defs
     id="defs33838" /><g
     inkscape:label="Layer 1"
     inkscape:groupmode="layer"
     id="layer1"><path
       style="fill:#000000;stroke-width:0.60127"
       d="M 51.572906,188.4899 C 21.770086,177.18508 19.91299,144.81366 47.78889,122.53009 c 8.226011,-6.57574 11.314541,-9.47425 15.049709,-14.12376 21.258708,-26.462725 52.336071,-26.963628 73.650351,-1.1871 5.62881,6.80722 10.75318,11.54078 16.97401,15.6795 39.39654,26.21054 9.01679,83.72486 -33.67145,63.74608 -10.00686,-4.68336 -26.060314,-4.61002 -38.716195,0.17696 -11.883093,4.4946 -20.732014,4.99497 -29.502409,1.6682 z M 17.520827,119.07492 C -6.091112,108.73421 -5.7422845,68.698602 17.989962,65.231381 c 17.367712,-2.53737 32.350825,20.73202 25.828424,40.112629 -4.114363,12.22536 -15.801459,18.32761 -26.297559,13.73091 z M 165.84675,117.3091 c -15.06361,-9.0836 -15.11286,-35.211243 -0.0897,-47.58618 19.36329,-15.950014 41.5464,6.319514 31.92039,32.04474 -5.51516,14.73907 -20.79193,22.19799 -31.83068,15.54144 z M 63.433876,74.541322 C 42.493794,67.220909 37.551508,31.116422 55.509193,16.649766 68.368531,6.290315 85.982127,12.983062 92.495268,30.703595 101.61946,55.528099 84.201938,81.801599 63.433876,74.541322 Z M 120.6421,73.670213 C 93.113317,60.289363 103.38613,8.3695679 132.92753,11.578534 c 23.01802,2.500334 30.15621,40.804632 10.82388,58.082026 -6.27993,5.612403 -16.2522,7.342672 -23.10931,4.009653 z"
       id="path34337"
       sodipodi:nodetypes="cssscsscssssssssssssscss" /></g></svg>
