<?xml version="1.0" encoding="UTF-8" standalone="no"?>
<!-- Created with Inkscape (http://www.inkscape.org/) -->

<svg
   width="200mm"
   height="200mm"
   viewBox="0 0 200 200"
   version="1.1"
   id="svg5"
   xml:space="preserve"
   inkscape:version="1.2.2 (732a01da63, 2022-12-09)"
   sodipodi:docname="paw.svg"
   xmlns:inkscape="http://www.inkscape.org/namespaces/inkscape"
   xmlns:sodipodi="http://sodipodi.sourceforge.net/DTD/sodipodi-0.dtd"
   xmlns="http://www.w3.org/2000/svg"
   xmlns:svg="http://www.w3.org/2000/svg"><sodipodi:namedview
     id="namedview7"
     pagecolor="#ffffff"
     bordercolor="#000000"
     borderopacity="0.25"
     inkscape:showpageshadow="2"
     inkscape:pageopacity="0.0"
     inkscape:pagecheckerboard="0"
     inkscape:deskcolor="#d1d1d1"
     inkscape:document-units="mm"
     showgrid="false"
     inkscape:zoom="0.89263468"
     inkscape:cx="290.15229"
     inkscape:cy="382.01518"
     inkscape:window-width="1920"
     inkscape:window-height="1009"
     inkscape:window-x="-8"
     inkscape:window-y="148"
     inkscape:window-maximized="1"
     inkscape:current-layer="layer1" /><defs
     id="defs2" /><g
     inkscape:label="Layer 1"
     inkscape:groupmode="layer"
     id="layer1"><path
       style="fill:#000000;stroke-width:0.414214"
       d="m 62.687946,183.96565 c -15.752536,-3.98281 -24.28388,-20.53354 -20.039265,-38.87597 16.843487,-72.786425 97.974429,-72.786425 114.817929,0 5.87644,25.39409 -12.76966,45.26003 -35.54538,37.87081 -14.92367,-4.84174 -28.889651,-4.83879 -43.727165,0.01 -4.852351,1.58546 -11.488457,2.01167 -15.506119,0.99586 z M 21.357,124.69767 C 1.5744526,119.49194 -6.9775904,88.934317 7.2723494,74.371267 19.255874,62.124433 38.978998,70.06203 45.433503,89.729277 52.015855,109.7861 38.620987,129.24063 21.357,124.69767 Z m 147.50349,-0.001 c -18.02117,-4.84617 -21.44165,-33.139865 -5.88399,-48.671699 16.10841,-16.081668 37.76505,-4.878713 36.80243,19.037846 -0.76251,18.944703 -16.07864,33.624503 -30.91844,29.633853 z M 63.306312,84.949644 C 40.803466,78.888779 34.68013,39.464893 53.497598,21.798192 65.621308,10.415902 82.420402,14.851954 90.359844,31.53222 102.78649,57.639854 85.876563,91.028661 63.306312,84.949644 Z M 125.53179,84.607412 C 107.78766,78.838589 99.915059,51.750515 109.98618,31.118005 c 12.14339,-24.8778935 40.76483,-18.808921 46.88266,9.941136 5.43843,25.55721 -12.02567,49.826616 -31.33705,43.548271 z"
       id="path314" /></g></svg>
