<?xml version="1.0" encoding="UTF-8" standalone="no"?>
<!-- Created with Inkscape (http://www.inkscape.org/) -->

<svg
   width="200mm"
   height="200mm"
   viewBox="0 0 200 200"
   version="1.1"
   id="svg33841"
   xml:space="preserve"
   sodipodi:docname="paws.svg"
   inkscape:version="1.2.2 (732a01da63, 2022-12-09)"
   xmlns:inkscape="http://www.inkscape.org/namespaces/inkscape"
   xmlns:sodipodi="http://sodipodi.sourceforge.net/DTD/sodipodi-0.dtd"
   xmlns="http://www.w3.org/2000/svg"
   xmlns:svg="http://www.w3.org/2000/svg"><sodipodi:namedview
     id="namedview33843"
     pagecolor="#ffffff"
     bordercolor="#000000"
     borderopacity="0.25"
     inkscape:showpageshadow="2"
     inkscape:pageopacity="0.0"
     inkscape:pagecheckerboard="0"
     inkscape:deskcolor="#d1d1d1"
     inkscape:document-units="mm"
     showgrid="false"
     inkscape:zoom="0.63118804"
     inkscape:cx="175.85885"
     inkscape:cy="340.6275"
     inkscape:window-width="1920"
     inkscape:window-height="1009"
     inkscape:window-x="-8"
     inkscape:window-y="148"
     inkscape:window-maximized="1"
     inkscape:current-layer="layer1" /><defs
     id="defs33838" /><g
     inkscape:label="Layer 1"
     inkscape:groupmode="layer"
     id="layer1"><path
       style="fill:#000000;stroke-width:0.335712"
       d="m 155.16823,195.69368 c -2.62211,-0.6872 -3.02236,-0.86337 -5.80295,-2.55419 -5.47618,-3.32995 -15.69403,-4.37494 -21.98916,-2.24886 -24.80581,8.37779 -37.682808,-25.22749 -14.43562,-37.67286 3.98292,-2.13224 5.91445,-3.54705 9.39995,-6.88522 7.16549,-6.86264 11.52372,-8.85974 19.30344,-8.8456 9.56976,0.0174 15.9038,3.59726 21.63301,12.22653 2.50865,3.77846 3.86126,5.37375 8.24446,9.72358 6.81028,6.75844 8.5666,9.94933 8.96188,16.28203 0.82526,13.22112 -12.11737,23.43339 -25.31501,19.97459 z m 27.1975,-36.54605 c -9.20245,-3.17973 -10.94195,-16.9014 -3.20236,-25.26109 8.39349,-9.06597 20.24445,-4.86185 20.81595,7.38443 0.52326,11.21271 -8.98141,20.85934 -17.61359,17.87666 z m -84.364416,-9.49961 c -7.746949,-3.03575 -11.529976,-15.22007 -7.339777,-23.63985 5.05455,-10.15661 18.118143,-8.39446 22.117133,2.98337 4.37995,12.46178 -4.3934,24.72559 -14.777356,20.65648 z m 62.083036,-17.8627 c -9.24873,-2.49372 -13.24061,-15.39286 -8.03319,-25.95806 7.41378,-15.041675 25.13513,-11.005595 26.07505,5.93866 0.67134,12.10218 -8.72722,22.5309 -18.04186,20.0194 z m -32.91642,-3.677 c -9.10857,-2.57215 -13.51423,-15.97815 -8.64586,-26.30852 7.64966,-16.232126 26.84544,-9.335238 26.07191,9.36744 -0.46697,11.2904 -8.78841,19.38025 -17.42605,16.94108 z M 34.551709,106.87256 C 17.338512,102.35186 14.400111,84.488019 28.564436,70.473302 32.744244,66.337643 34.288279,64.54636 36.088173,61.744784 46.332269,45.799619 63.557531,43.690448 76.91038,56.746248 c 3.52631,3.447865 6.650358,5.774109 10.348143,7.705481 23.418057,12.231397 9.939317,45.954451 -14.939192,37.377001 -5.831945,-2.010697 -14.740824,-1.02412 -21.485581,2.37935 -6.332912,3.19564 -11.21653,3.99482 -16.282041,2.66448 z M 11.555423,70.338296 C -2.1636678,65.98813 -4.3288635,43.739022 8.6434695,40.415662 18.136872,37.983568 27.826816,50.020405 25.347339,61.165188 23.783273,68.195364 17.653903,72.272055 11.555423,70.338296 Z M 93.804911,60.618604 C 84.906094,56.462746 83.339326,41.959076 90.951357,34.203108 100.76248,24.206467 114.3911,35.26394 110.56225,50.114257 108.36854,58.622618 100.32605,63.664058 93.804911,60.618604 Z M 34.423379,42.9072 C 22.365711,40.076536 17.4944,20.321797 26.612501,11.231563 33.141892,4.7221256 43.315646,7.4002897 47.975956,16.855334 54.504534,30.100805 46.381995,45.71461 34.423379,42.9072 Z M 66.13521,39.052869 C 50.062284,33.245532 52.706877,3.8133525 69.297921,3.8544738 c 12.927387,0.032027 19.147523,20.8787632 9.431798,31.6105682 -3.156067,3.486129 -8.590923,5.03437 -12.594509,3.587827 z"
       id="path34337" /></g></svg>
