<?xml version="1.0" encoding="UTF-8" standalone="no"?>
<svg
   shape-rendering="geometricPrecision"
   version="1.0"
   width="1800.000000pt"
   height="1800.000000pt"
   viewBox="198 41 1401 1653"
   preserveAspectRatio="xMidYMid meet"
   id="svg490"
   sodipodi:docname="person.svg"
   inkscape:version="1.2.2 (732a01da63, 2022-12-09)"
   xmlns:inkscape="http://www.inkscape.org/namespaces/inkscape"
   xmlns:sodipodi="http://sodipodi.sourceforge.net/DTD/sodipodi-0.dtd"
   xmlns="http://www.w3.org/2000/svg"
   xmlns:svg="http://www.w3.org/2000/svg">
  <defs
     id="defs494" />
  <sodipodi:namedview
     id="namedview492"
     pagecolor="#ffffff"
     bordercolor="#000000"
     borderopacity="0.25"
     inkscape:showpageshadow="2"
     inkscape:pageopacity="0.0"
     inkscape:pagecheckerboard="0"
     inkscape:deskcolor="#d1d1d1"
     inkscape:document-units="pt"
     showgrid="true"
     inkscape:zoom="0.14760854"
     inkscape:cx="-406.48054"
     inkscape:cy="372.60717"
     inkscape:window-width="2560"
     inkscape:window-height="1369"
     inkscape:window-x="1912"
     inkscape:window-y="-8"
     inkscape:window-maximized="1"
     inkscape:current-layer="svg490">
    <inkscape:grid
       type="xygrid"
       id="grid1243"
       empspacing="20" />
  </sodipodi:namedview>
  <g
     transform="translate(0.000000,1800.000000) scale(0.100000,-0.100000)"
     fill="#000000"
     stroke="none"
     id="g488">
    <path
       d="m 8650,17103 c -380,-42 -685,-113 -970,-223 -30,-12 -67,-25 -81,-30 -14,-4 -34,-12 -45,-18 -10,-5 -39,-18 -64,-27 -53,-21 -279,-133 -330,-164 -19,-11 -42,-24 -50,-28 -57,-25 -445,-298 -496,-347 -6,-6 -41,-36 -77,-66 -170,-140 -454,-455 -600,-665 -156,-224 -314,-514 -407,-745 -12,-30 -27,-68 -34,-85 -7,-16 -27,-77 -45,-135 -19,-58 -39,-121 -46,-140 -31,-87 -83,-331 -110,-515 -53,-352 -44,-824 21,-1185 47,-261 116,-502 206,-720 22,-52 42,-104 46,-115 14,-48 185,-372 256,-485 111,-176 269,-387 396,-525 226,-247 498,-476 758,-640 129,-82 111,-71 227,-135 117,-64 252,-128 355,-170 30,-12 69,-28 85,-35 17,-7 39,-16 50,-18 11,-3 52,-16 90,-30 114,-39 252,-79 345,-100 320,-73 581,-103 875,-101 147,1 496,27 515,39 4,2 40,8 81,14 41,5 117,19 169,31 52,12 111,25 130,30 33,7 98,25 200,56 284,84 666,264 932,440 305,202 647,509 843,758 17,21 50,64 75,95 110,138 274,399 360,571 94,187 187,415 233,565 130,431 169,692 170,1125 0,298 -5,365 -49,640 -23,146 -86,403 -117,480 -5,14 -13,39 -18,55 -16,61 -71,210 -80,219 -5,6 -9,16 -9,23 0,23 -136,307 -195,408 -23,39 -44,77 -48,85 -25,51 -141,223 -225,334 -213,283 -490,560 -752,752 -107,79 -275,191 -335,224 -22,12 -56,31 -75,42 -72,43 -269,138 -390,188 -69,28 -140,58 -158,66 -18,8 -39,14 -47,14 -8,0 -29,6 -47,14 -32,13 -74,26 -188,59 -412,117 -937,164 -1330,120 z"
       id="path484"
       style="display:none" />
    <path
       d="M 9054.9909,8312.9954 C 6959.678,8311.6514 6068.1707,7911.1832 4895.0594,7200.0548 3721.9481,6488.9264 2564.4193,4999.692 2540.3357,3273.0371 c -8.434,-1328.3968 756.5735,-1658.3232 1824.6942,-1691.3632 1068.1207,-33.04 8347.9691,-35.4231 9371.2041,-2.2079 1023.234,33.2152 1813.505,393.5608 1820.884,1693.8855 77.587,1710.8215 -1395.338,3265.2283 -2328.788,3918.9971 -933.45,653.7688 -2078.026,1121.9908 -4173.3391,1120.6468 z"
       id="path486"
       sodipodi:nodetypes="zzczzczz" />
  </g>
  <ellipse
     style="display:inline;fill:#000000;fill-opacity:1;stroke:#000000;stroke-width:0.267235;stroke-dasharray:none;stroke-opacity:0.996491"
     id="path665"
     cx="898.67682"
     cy="461.24136"
     rx="372.4895"
     ry="373.0343" />
</svg>
