<?xml version="1.0" encoding="UTF-8" standalone="no"?>
<!-- Created with Inkscape (http://www.inkscape.org/) -->

<svg
   width="200mm"
   height="200mm"
   viewBox="0 0 200 200"
   version="1.1"
   id="svg5"
   xml:space="preserve"
   inkscape:version="1.2.2 (732a01da63, 2022-12-09)"
   sodipodi:docname="scissors.svg"
   xmlns:inkscape="http://www.inkscape.org/namespaces/inkscape"
   xmlns:sodipodi="http://sodipodi.sourceforge.net/DTD/sodipodi-0.dtd"
   xmlns="http://www.w3.org/2000/svg"
   xmlns:svg="http://www.w3.org/2000/svg"><sodipodi:namedview
     id="namedview7"
     pagecolor="#ffffff"
     bordercolor="#000000"
     borderopacity="0.25"
     inkscape:showpageshadow="2"
     inkscape:pageopacity="0.0"
     inkscape:pagecheckerboard="0"
     inkscape:deskcolor="#d1d1d1"
     inkscape:document-units="mm"
     showgrid="false"
     inkscape:zoom="0.89263468"
     inkscape:cx="290.15229"
     inkscape:cy="382.01518"
     inkscape:window-width="1920"
     inkscape:window-height="1009"
     inkscape:window-x="-8"
     inkscape:window-y="148"
     inkscape:window-maximized="1"
     inkscape:current-layer="layer1" /><defs
     id="defs2" /><g
     inkscape:label="Layer 1"
     inkscape:groupmode="layer"
     id="layer1"><path
       style="fill:#000000;stroke-width:0.370901"
       d="M 6.3036946,130.66288 C -12.971223,102.20954 18.123979,67.790643 48.015974,84.49207 c 6.235326,3.483827 10.783563,9.157766 14.236495,17.76005 0.08263,0.20587 4.716963,-1.39644 10.298513,-3.560677 L 82.699252,94.756477 99.975408,52.82087 C 118.21525,8.546031 118.33464,8.2884654 122.12492,5.0409162 c 5.20251,-4.45758581 10.98833,-5.71692641 18.9776,-4.13067449 9.12642,1.81202639 9.76013,-1.84241502 -7.35387,42.40705029 -7.81428,20.204418 -14.13644,36.806666 -14.04922,36.893879 0.0872,0.08725 16.68947,-6.234932 36.89389,-14.049224 44.24946,-17.113993 40.59501,-16.480273 42.40705,-7.353859 1.58624,7.98928 0.32691,13.775089 -4.1307,18.977603 -3.24746,3.790188 -3.50588,3.909998 -47.76333,22.142678 l -41.91901,17.269301 -3.91195,10.07218 c -2.151544,5.53971 -3.921844,10.12335 -3.933971,10.1859 -0.01257,0.0625 1.07439,0.52974 2.414522,1.03822 29.235699,11.09288 25.079399,54.33683 -5.819206,60.54526 -30.810122,6.19065 -49.13628,-29.67815 -27.75746,-54.32817 6.45377,-7.44126 9.501969,-12.8245 11.436136,-20.19658 0.77738,-2.963 0.611173,-3.05456 -3.369447,-1.85576 -7.314476,2.20286 -12.521339,5.27797 -19.567716,11.55651 -15.372931,13.69773 -37.804846,12.05047 -48.3745434,-3.55235 z m 16.9150004,-5.84026 c 10.281773,7.02403 24.332395,-0.41183 24.332395,-12.87716 0,-10.73617 -10.509041,-18.195372 -20.707301,-14.697842 -11.897301,4.080222 -14.049768,20.453362 -3.625094,27.575002 z m 55.860458,55.86519 c 6.922585,4.74504 16.815942,3.05069 21.536457,-3.68841 7.31026,-10.43624 0.018,-24.63981 -12.650536,-24.63981 -15.16789,0 -21.369689,19.77127 -8.885921,28.32822 z M 91.47664,113.67463 c 4.443595,1.51117 9.39181,-1.90557 9.70324,-6.70009 0.58344,-8.981978 -11.992657,-11.573628 -14.843608,-3.05895 -1.435544,4.28739 0.640466,8.22871 5.140368,9.75904 z"
       id="path385" /></g></svg>
