<?xml version="1.0" encoding="UTF-8" standalone="no"?>
<!-- Created with Inkscape (http://www.inkscape.org/) -->

<svg
   width="200mm"
   height="200mm"
   viewBox="0 0 200 200"
   version="1.1"
   id="svg5"
   xml:space="preserve"
   inkscape:version="1.2.2 (732a01da63, 2022-12-09)"
   sodipodi:docname="stuffing.svg"
   xmlns:inkscape="http://www.inkscape.org/namespaces/inkscape"
   xmlns:sodipodi="http://sodipodi.sourceforge.net/DTD/sodipodi-0.dtd"
   xmlns="http://www.w3.org/2000/svg"
   xmlns:svg="http://www.w3.org/2000/svg"><sodipodi:namedview
     id="namedview7"
     pagecolor="#ffffff"
     bordercolor="#000000"
     borderopacity="0.25"
     inkscape:showpageshadow="2"
     inkscape:pageopacity="0.0"
     inkscape:pagecheckerboard="0"
     inkscape:deskcolor="#d1d1d1"
     inkscape:document-units="mm"
     showgrid="true"
     inkscape:zoom="0.26656771"
     inkscape:cx="1395.5179"
     inkscape:cy="-210.07796"
     inkscape:window-width="1920"
     inkscape:window-height="1009"
     inkscape:window-x="-8"
     inkscape:window-y="148"
     inkscape:window-maximized="1"
     inkscape:current-layer="layer1"><inkscape:grid
       type="xygrid"
       id="grid10536" /></sodipodi:namedview><defs
     id="defs2" /><g
     inkscape:label="Layer 1"
     inkscape:groupmode="layer"
     id="layer1"><path
       style="fill:#000000;stroke-width:0.390735"
       d="m 81.001613,197.43131 c 14.340494,-17.38565 3.592499,-45.6736 -17.340268,-45.63833 -12.487976,0.0211 -21.72211,9.43608 -24.045603,24.51667 l -0.232968,1.51208 -1.975163,-0.26201 C 23.71137,175.74285 16.655815,159.26984 22.246405,142.16197 25.876985,131.05196 33.618302,120.20077 48.60977,105.2078 L 56.853262,96.963473 55.15136,95.048667 C 43.139245,81.533968 39.086897,60.849174 45.076936,43.624822 c 0.537254,-1.54487 0.938375,-2.835015 0.891386,-2.86699 -0.04699,-0.03196 -1.012478,-0.554739 -2.145533,-1.161691 -14.219347,-7.617019 -13.906045,-29.65685 0.528982,-37.2123106 10.018888,-5.244 24.156439,-1.3423208 28.554478,7.8804586 0.773843,1.62277 0.857832,1.642931 2.785775,0.668739 12.339613,-6.2352233 32.859476,-6.6003787 46.579626,-0.828894 4.26232,1.792976 3.99375,1.801551 5.02558,-0.1604571 4.77691,-9.08322275 18.54414,-12.7637967 28.2977,-7.5651986 14.50597,7.7316047 14.84742,29.5758287 0.58175,37.2176627 -1.13305,0.606952 -2.09854,1.129714 -2.14553,1.161691 -0.0469,0.03196 0.35412,1.32212 0.89138,2.86699 5.99004,17.224352 1.9377,37.909146 -10.07442,51.423845 l -1.7019,1.914806 8.24349,8.244327 c 14.99147,14.99297 22.73278,25.84416 26.36337,36.95417 5.59202,17.11226 -1.46473,33.58085 -15.16827,35.39868 -2.24744,0.29814 -1.95535,0.7491 -2.79323,-4.3127 -2.45247,-14.81592 -16.50534,-24.63325 -29.50984,-20.61554 -17.64346,5.45089 -23.74821,29.68781 -11.28388,44.7989 L 121.11664,200 H 99.999731 78.882835 Z M 108.4676,114.23532 C 135.71307,109.81643 145.34306,87.117929 125.55759,73.953129 104.07744,59.660729 67.689834,68.205505 64.019379,88.403937 61.110793,104.40982 84.661381,118.09641 108.4676,114.23532 Z M 97.264584,96.720147 c -6.651957,-1.89708 -11.492842,-10.271923 -8.640846,-14.948869 2.690349,-4.411863 20.061642,-4.411863 22.751992,0 4.07313,6.67946 -5.93418,17.28086 -14.111146,14.948869 z M 78.743729,63.477065 c 2.938498,-2.938498 0.596384,-7.626397 -3.555691,-7.11696 -5.223198,0.640861 -4.681569,8.44546 0.586103,8.44546 1.345356,0 1.880492,-0.239404 2.969588,-1.3285 z m 48.451181,0 c 3.61407,-3.614064 -0.8916,-9.223723 -5.22605,-6.506548 -3.61883,2.268562 -2.01569,7.835048 2.25647,7.835048 1.34535,0 1.88049,-0.239404 2.96958,-1.3285 z M 54.271971,27.114338 c 1.105086,-1.388775 3.529188,-3.947119 5.3869,-5.68521 l 3.377657,-3.160165 -0.742737,-1.379185 c -3.288202,-6.10582 -12.281238,-5.990076 -15.514803,0.199682 -2.271497,4.348138 -0.891697,9.140748 3.401988,11.816502 1.703457,1.061569 1.883321,0.982799 4.090995,-1.791624 z m 95.272869,1.97228 c 7.83381,-4.104048 5.39694,-16.073989 -3.37327,-16.569549 -3.90137,-0.220448 -6.80122,1.281594 -8.47516,4.389909 l -0.75199,1.396385 3.37728,3.13086 c 1.85751,1.721974 4.28579,4.272579 5.39616,5.668011 2.19496,2.758446 2.27261,2.798706 3.82698,1.984384 z M 60.142199,190.64801 c -9.996002,-3.04065 -10.039284,-17.69364 -0.06083,-20.59446 8.901847,-2.58783 16.598227,6.15837 12.927596,14.69097 -1.995665,4.63906 -7.986829,7.3879 -12.866766,5.90349 z m 72.805991,-0.27477 c -5.73578,-2.03242 -8.55246,-9.18769 -5.81737,-14.77802 4.97234,-10.16312 20.27576,-6.63637 20.27576,4.67265 0,7.46953 -7.36662,12.61827 -14.45839,10.10537 z"
       id="path16542" /></g></svg>
