<?xml version="1.0" encoding="UTF-8" standalone="no"?>
<!-- Created with Inkscape (http://www.inkscape.org/) -->

<svg
   width="200mm"
   height="200mm"
   viewBox="0 0 200 200"
   version="1.1"
   id="svg77946"
   sodipodi:docname="sun-moon-auto.svg"
   inkscape:version="1.2.2 (732a01da63, 2022-12-09)"
   xmlns:inkscape="http://www.inkscape.org/namespaces/inkscape"
   xmlns:sodipodi="http://sodipodi.sourceforge.net/DTD/sodipodi-0.dtd"
   xmlns="http://www.w3.org/2000/svg"
   xmlns:svg="http://www.w3.org/2000/svg">
  <sodipodi:namedview
     id="namedview77948"
     pagecolor="#ffffff"
     bordercolor="#000000"
     borderopacity="0.25"
     inkscape:showpageshadow="2"
     inkscape:pageopacity="0.0"
     inkscape:pagecheckerboard="0"
     inkscape:deskcolor="#d1d1d1"
     inkscape:document-units="mm"
     showgrid="true"
     inkscape:zoom="0.1767767"
     inkscape:cx="-1716.8553"
     inkscape:cy="-644.88139"
     inkscape:window-width="1920"
     inkscape:window-height="1009"
     inkscape:window-x="-8"
     inkscape:window-y="148"
     inkscape:window-maximized="1"
     inkscape:current-layer="layer1">
    <inkscape:grid
       type="xygrid"
       id="grid78797" />
  </sodipodi:namedview>
  <defs
     id="defs77943" />
  <g
     inkscape:label="Layer 1"
     inkscape:groupmode="layer"
     id="layer1">
    <path
       style="fill:#000000;fill-opacity:1;stroke:#000000;stroke-width:1.76499;stroke-linecap:round;stroke-linejoin:round"
       d="M 99.961775,0.88246877 81.655143,28.498102 l 36.689697,0.0387 z"
       id="path78432"
       sodipodi:nodetypes="cccc" />
    <path
       style="fill:#000000;fill-opacity:1;stroke:#000000;stroke-width:1.76499;stroke-linecap:round;stroke-linejoin:round"
       d="m 99.961774,199.11758 -18.306628,-27.61564 36.689694,-0.0387 z"
       id="path78432-6"
       sodipodi:nodetypes="cccc" />
    <path
       style="fill:#000000;fill-opacity:1;stroke:#000000;stroke-width:1.76499;stroke-linecap:round;stroke-linejoin:round"
       d="m 199.11758,99.961778 -27.61565,-18.30663 -0.0388,36.689692 z"
       id="path78432-5"
       sodipodi:nodetypes="cccc" />
    <path
       style="fill:#000000;fill-opacity:1;stroke:#000000;stroke-width:1.76499;stroke-linecap:round;stroke-linejoin:round"
       d="M 0.88246877,99.961778 28.498101,81.655148 28.536856,118.34484 Z"
       id="path78432-6-9"
       sodipodi:nodetypes="cccc" />
    <path
       style="fill:#000000;fill-opacity:1;stroke:#000000;stroke-width:1.76499;stroke-linecap:round;stroke-linejoin:round"
       d="m 170.05968,29.88623 -32.47195,6.582461 25.91612,25.970933 z"
       id="path78432-51"
       sodipodi:nodetypes="cccc" />
    <path
       style="fill:#000000;fill-opacity:1;stroke:#000000;stroke-width:1.76499;stroke-linecap:round;stroke-linejoin:round"
       d="m 29.886287,170.05962 6.582457,-32.47194 25.970933,25.91612 z"
       id="path78432-6-1"
       sodipodi:nodetypes="cccc" />
    <path
       style="fill:#000000;fill-opacity:1;stroke:#000000;stroke-width:1.76499;stroke-linecap:round;stroke-linejoin:round"
       d="m 170.11376,170.05962 -6.58247,-32.47196 -25.97093,25.91613 z"
       id="path78432-5-6"
       sodipodi:nodetypes="cccc" />
    <path
       style="fill:#000000;fill-opacity:1;stroke:#000000;stroke-width:1.76499;stroke-linecap:round;stroke-linejoin:round"
       d="M 29.940373,29.886235 62.41232,36.468689 36.496191,62.439627 Z"
       id="path78432-6-9-6"
       sodipodi:nodetypes="cccc" />
    <path
       id="path78067"
       style="fill:#000000;fill-opacity:1;stroke:#000000;stroke-width:1.37062;stroke-linecap:round;stroke-linejoin:round"
       d="M 100.0001 40.685372 A 59.31469 59.31469 0 0 0 40.685372 100.0001 A 59.31469 59.31469 0 0 0 100.0001 159.31482 A 59.31469 59.31469 0 0 0 159.31482 100.0001 A 59.31469 59.31469 0 0 0 100.0001 40.685372 z M 96.259757 59.819604 C 101.60852 59.860968 106.62828 60.906469 110.60927 63.014242 C 111.86844 63.761339 110.91652 64.558738 110.35709 64.719564 C 49.345286 82.258509 100.91847 156.01442 138.27528 104.66803 C 139.04694 103.36996 139.91583 103.81133 139.96923 104.83856 C 140.35917 112.34824 137.22609 130.51145 121.78533 141.35726 C 101.50021 155.60581 72.917108 152.06178 58.837236 132.01675 C 44.757359 111.97173 46.799302 84.047494 70.055672 67.711629 C 77.516118 62.471226 87.345147 59.750666 96.259757 59.819604 z " />
  </g>
</svg>
