<?xml version="1.0" encoding="UTF-8" standalone="no"?>
<!-- Created with Inkscape (http://www.inkscape.org/) -->

<svg
   width="200mm"
   height="200mm"
   viewBox="0 0 200 200"
   version="1.1"
   id="svg5"
   xml:space="preserve"
   inkscape:version="1.2.2 (732a01da63, 2022-12-09)"
   sodipodi:docname="tape-measure.svg"
   xmlns:inkscape="http://www.inkscape.org/namespaces/inkscape"
   xmlns:sodipodi="http://sodipodi.sourceforge.net/DTD/sodipodi-0.dtd"
   xmlns="http://www.w3.org/2000/svg"
   xmlns:svg="http://www.w3.org/2000/svg"><sodipodi:namedview
     id="namedview7"
     pagecolor="#ffffff"
     bordercolor="#000000"
     borderopacity="0.25"
     inkscape:showpageshadow="2"
     inkscape:pageopacity="0.0"
     inkscape:pagecheckerboard="0"
     inkscape:deskcolor="#d1d1d1"
     inkscape:document-units="mm"
     showgrid="false"
     inkscape:zoom="0.22315867"
     inkscape:cx="80.660097"
     inkscape:cy="-354.0082"
     inkscape:window-width="1920"
     inkscape:window-height="1009"
     inkscape:window-x="-8"
     inkscape:window-y="148"
     inkscape:window-maximized="1"
     inkscape:current-layer="layer1" /><defs
     id="defs2" /><g
     inkscape:label="Layer 1"
     inkscape:groupmode="layer"
     id="layer1"><path
       style="fill:#000000;stroke-width:0.499698"
       d="m 76.265251,181.55591 -2.093707,-0.18983 -0.154942,-9.45432 c -0.173848,-10.6086 -0.521194,-11.64503 -3.902674,-11.64503 -3.349099,0 -3.728536,1.08738 -3.904394,11.18924 l -0.156643,8.99865 -1.842143,-0.32023 C 54.873102,178.5113 45.998977,176.25993 38.383083,173.5819 l -3.997589,-1.40569 -0.249849,-7.85779 c -0.280711,-8.82842 -0.765947,-10.04807 -3.997588,-10.04807 -3.054132,0 -3.725761,1.40193 -3.914433,8.17081 l -0.166689,5.98048 -2.331794,-1.34175 C 13.361095,161.11629 6.4703308,154.63395 2.8652429,147.45638 0.1963241,142.14269 0.16847998,141.78546 0.16208873,112.77575 L 0.15625592,85.855687 5.0868458,90.588188 C 19.229642,104.16279 41.909311,113.36141 69.657312,116.77727 c 5.854163,0.72066 14.043096,0.83191 64.667998,0.87848 64.79899,0.0596 59.76306,-0.23429 63.30853,3.69486 2.51061,2.78232 2.46655,2.20996 2.29977,29.8776 l -0.14787,24.52459 -1.37304,1.79966 c -3.19439,4.18704 -2.79748,4.10008 -19.45692,4.26382 l -14.83358,0.14579 -0.15731,-8.75301 c -0.17678,-9.82902 -0.57445,-10.94355 -3.90512,-10.94355 -3.32915,0 -3.72843,1.1168 -3.90488,10.92266 l -0.15713,8.73213 H 137.07363 118.1495 l -0.15713,-8.73213 c -0.1764,-9.80586 -0.57573,-10.92266 -3.90488,-10.92266 -3.32916,0 -3.72841,1.1168 -3.90487,10.92266 l -0.15714,8.73213 -15.83322,-0.0873 c -8.70827,-0.048 -16.775381,-0.17279 -17.926923,-0.2771 z M 74.36137,109.40953 C 26.997557,104.99497 -6.127075,81.553658 0.9538391,57.461188 14.0468,12.913034 133.01203,3.1981117 172.55566,43.447864 205.82481,77.3111 147.84536,116.2586 74.36137,109.40953 Z M 96.388319,81.481903 c 38.689961,-3.425278 38.790511,-31.572498 0.124925,-34.965546 -38.737232,-3.399329 -55.849441,25.045018 -20.15308,33.49896 3.789709,0.897508 6.280889,1.240392 13.741709,1.891374 0.41225,0.03598 3.241148,-0.155188 6.286446,-0.424788 z m 50.929021,26.526457 c 13.86633,-4.79039 21.363,-9.201237 30.10684,-17.71412 l 4.6222,-4.500119 v 12.084816 12.084823 l -20.11285,-0.0282 -20.11286,-0.0282 z"
       id="path4127" /></g></svg>
