<?xml version="1.0" encoding="UTF-8" standalone="no"?>
<!-- Created with Inkscape (http://www.inkscape.org/) -->

<svg
   width="212.2442mm"
   height="129.29861mm"
   viewBox="0 0 212.2442 129.29862"
   version="1.1"
   id="svg15707"
   xml:space="preserve"
   sodipodi:docname="toucan.svg"
   inkscape:version="1.2.2 (732a01da63, 2022-12-09)"
   xmlns:inkscape="http://www.inkscape.org/namespaces/inkscape"
   xmlns:sodipodi="http://sodipodi.sourceforge.net/DTD/sodipodi-0.dtd"
   xmlns="http://www.w3.org/2000/svg"
   xmlns:svg="http://www.w3.org/2000/svg"><sodipodi:namedview
     id="namedview15709"
     pagecolor="#ffffff"
     bordercolor="#000000"
     borderopacity="0.25"
     inkscape:showpageshadow="2"
     inkscape:pageopacity="0.0"
     inkscape:pagecheckerboard="0"
     inkscape:deskcolor="#d1d1d1"
     inkscape:document-units="mm"
     showgrid="false"
     inkscape:zoom="0.89263468"
     inkscape:cx="387.61658"
     inkscape:cy="245.34113"
     inkscape:window-width="2560"
     inkscape:window-height="1369"
     inkscape:window-x="1912"
     inkscape:window-y="-8"
     inkscape:window-maximized="1"
     inkscape:current-layer="layer1" /><defs
     id="defs15704" /><g
     inkscape:label="Layer 1"
     inkscape:groupmode="layer"
     id="layer1"
     transform="translate(-3.3320442,-27.079347)"><path
       style="fill:#000000;stroke-width:0.264583"
       d="m 136.53143,155.80724 c -0.30234,-0.32452 -0.61571,-0.853 -0.69638,-1.1744 -0.41983,-1.67277 -3.39726,-2.93892 -4.63028,-1.96903 -3.13009,2.46213 -6.81026,2.90995 -21.39537,2.60353 -9.970288,-0.20947 -10.329039,-0.32185 -8.68535,-2.72066 1.64921,-2.40686 3.68461,-3.02362 10.00731,-3.0324 2.69214,-0.004 5.60917,-0.11773 6.4823,-0.25331 4.14115,-0.64306 5.183,-0.85511 7.27604,-1.48084 1.23692,-0.3698 3.02286,-1.01345 3.96875,-1.43034 0.94588,-0.4169 2.0954,-0.89635 2.55449,-1.06545 1.3194,-0.486 1.25803,-1.08872 -0.27605,-2.71099 -2.24519,-2.37425 -2.69883,-4.76795 -1.9972,-10.53848 0.47832,-3.93396 0.19286,-4.50418 -2.42957,-4.85325 -0.92029,-0.12249 -1.51313,8e-4 -2.87876,0.59807 -2.36245,1.03347 -2.37666,1.42572 -0.10695,2.95302 2.19252,1.47535 3.09144,3.0141 2.62301,4.48999 -0.30047,0.94671 -1.67553,0.63291 -2.28403,-0.52124 -1.11738,-2.11934 -2.44251,-2.57582 -4.30982,-1.48464 -2.99006,1.74727 -7.61347,2.29564 -14.79873,1.75524 -3.28562,-0.24711 -5.160154,-0.26729 -6.788059,-0.0731 -3.484631,0.41574 -4.671338,-0.91329 -2.50997,-2.811 1.850239,-1.62453 2.209708,-1.71273 7.801639,-1.91434 6.71815,-0.2422 8.70281,-0.58604 13.83446,-2.39677 3.5016,-1.23556 3.70847,-2.06091 0.68989,-2.75251 -2.97206,-0.68093 -11.36312,-3.41595 -13.33373,-4.34605 -0.29104,-0.13736 -1.12448,-0.47825 -1.85208,-0.75752 -4.239155,-1.62708 -11.229571,-5.44448 -14.785533,-8.07424 -1.04824,-0.77521 -2.138913,-1.5398 -2.423719,-1.69909 -0.630383,-0.35256 -5.346051,-5.10028 -7.38928,-7.43949 -1.660266,-1.90078 -4.845947,-6.701364 -5.69626,-8.338606 -0.850313,-1.637242 -2.68392,-6.246878 -3.488798,-8.691459 -0.804878,-2.444581 -1.287391,-8.11312 -0.750858,-12.492069 0.280479,-2.289146 0.46836,-3.172473 1.603877,-7.540624 1.719586,-6.61497 1.391918,-10.872139 -0.769757,-10.000943 -0.969571,0.390755 -12.930973,0.588653 -15.37988,0.254455 -6.603068,-0.90111 -8.588216,-1.278689 -14.419791,-2.742668 -1.74625,-0.438386 -3.65125,-0.904409 -4.233333,-1.035608 C 34.481574,51.989249 33.171887,51.637165 32.153241,51.33804 28.199094,50.176909 27.584887,50.011248 25.406366,49.518302 22.190689,48.790674 16.284105,48.095715 14.852323,48.276526 10.356396,48.844295 7.9608855,50.08849 7.009655,52.3499 5.7214117,55.412507 3.3681304,52.237849 3.3322553,47.388962 3.2912941,41.852641 9.2206826,32.04313 12.60809,32.04313 c 0.103896,0 0.37687,-0.154441 0.60661,-0.343203 3.359962,-2.760649 15.245193,-4.837877 26.333301,-4.602373 10.753399,0.228395 16.794247,0.998648 31.15506,3.972501 2.551776,0.528424 3.342018,0.596041 4.497916,0.384861 2.037649,-0.372274 7.25998,0.392453 9.024792,1.06158 1.764812,0.669127 3.742676,1.840038 5.208812,2.781836 3.473911,2.233634 7.427394,8.172347 9.017654,13.545839 0.933669,3.154867 1.756085,6.549127 1.955265,8.069791 0.74183,5.663316 2.00984,6.749719 9.13636,7.82784 6.00919,0.909087 12.79308,2.441049 16.80105,3.79407 0.87312,0.294751 1.76609,0.539572 1.98437,0.544046 0.21828,0.0045 0.75406,0.19458 1.19063,0.422458 0.43656,0.227878 1.46718,0.641363 2.29026,0.918858 1.99543,0.672738 6.44094,2.582833 9.21911,3.961162 2.50762,1.2441 2.94318,1.477161 5.92808,3.172034 2.03813,1.157279 2.47376,1.414531 5.10804,3.016474 0.69685,0.423768 1.92185,1.265471 2.72221,1.870451 0.80037,0.604983 1.87193,1.412388 2.38125,1.794237 6.34512,4.757066 12.48766,10.387163 17.06625,15.642508 0.87278,1.00179 1.77463,2.01382 2.00411,2.24896 0.22949,0.23514 0.76527,0.90294 1.19063,1.48399 0.42536,0.58106 1.45657,1.87763 2.29157,2.88128 1.63594,1.96634 5.18119,6.90961 6.43862,8.97758 3.10702,5.10981 9.83006,12.32697 15.32809,16.45465 3.69043,2.7706 8.01933,5.68732 8.44096,5.68732 0.11659,0 0.7241,0.34561 1.35001,0.76803 0.6259,0.42243 1.41708,0.85106 1.75816,0.95251 3.54609,1.05485 3.35723,3.13765 -0.43819,4.8323 -10.50426,4.69013 -24.15428,-0.13208 -34.10176,-12.04731 -2.34468,-2.80849 -2.70164,-2.97605 -5.71803,-2.68413 -6.6986,0.64828 -9.0403,0.79169 -14.73725,0.90249 -4.33708,0.0844 -6.31257,0.21909 -6.69712,0.45673 -1.50262,2.0138 -5.13273,9.62228 -5.81771,11.33882 -0.68498,1.71654 -3.34876,3.6341 -6.33051,3.28803 -1.43991,-0.16712 -4.4601,0.97966 -6.32751,2.40259 -0.34049,0.25944 0.44155,1.26796 1.33775,1.72517 1.44563,0.73751 3.63911,2.81438 4.08213,3.86512 0.91821,2.17779 -0.35001,3.90591 -1.75763,2.39501 z m -9.75558,-4.08389 c 1.81492,-0.61456 2.0826,-0.78566 2.0826,-1.33122 0,-0.80993 -0.18889,-0.88956 -1.36952,-0.50073 -1.18063,0.38883 -2.37859,0.62771 -3.39298,0.92953 -0.94589,0.2842 -2.43417,0.65955 -3.30729,0.83412 -2.07377,0.41461 -1.37035,0.72924 1.68771,0.75489 1.73884,0.0146 2.66598,-0.13347 4.29948,-0.68659 z m 75.88538,-8.73082 c 0.18105,-0.15744 -0.96074,-0.91541 -3.14487,-2.08771 -3.72573,-1.99971 -4.64352,-2.65875 -7.48864,-5.37739 -1.82159,-1.7406 -2.21974,-2.66759 -1.46844,-3.41889 0.6101,-0.6101 1.26813,-0.30556 2.78474,1.2888 1.74796,1.83756 6.13704,4.86154 9.06197,6.2435 3.59183,1.69705 4.16108,1.93979 4.54909,1.93979 0.21091,0 0.61459,0.1748 0.89707,0.38846 0.58562,0.44294 1.90944,0.51935 2.49796,0.14418 0.66822,-0.42597 0.005,-1.08178 -2.6793,-2.64931 -5.00297,-2.92158 -8.17859,-5.25303 -12.86968,-9.44859 -2.78597,-2.49168 -2.50661,-2.39019 -4.35337,-1.58153 -2.19797,0.96246 -5.75276,1.60627 -7.74303,1.40236 -3.36191,-0.34443 -3.14883,0.33231 1.38395,4.39551 6.66746,5.97674 16.46141,10.59662 18.57255,8.76082 z m -60.33248,-0.77132 c 0.84646,-0.71225 1.54213,-2.06209 2.4437,-4.74163 0.29378,-0.87312 1.07399,-2.68563 1.73381,-4.0278 1.51489,-3.08153 1.49606,-3.12606 -1.4191,-3.35682 -1.28595,-0.10179 -4.12403,-0.43097 -6.30684,-0.73151 -7.57593,-1.04309 -6.83867,-1.40165 -7.26331,3.53241 -0.57998,6.73912 0.40566,8.55809 5.20477,9.60517 2.75434,0.60094 4.6741,0.50514 5.60697,-0.27982 z m 42.53607,-14.67741 c 4.64237,-0.62468 5.961,-1.63054 4.38477,-3.34473 -0.7613,-0.82793 -2.54587,-3.16588 -4.30292,-5.63719 -0.56904,-0.80037 -1.3666,-1.91335 -1.77236,-2.47329 -1.50082,-2.07113 -6.10413,-3.21492 -7.51166,-1.86643 -0.94721,0.90749 -0.94736,1.03627 -0.004,3.08224 2.1555,4.67261 1.14242,5.77981 -2.93463,3.20727 -3.76186,-2.37365 -5.21766,-1.17388 -1.66499,1.37217 0.58208,0.41715 2.01083,1.54138 3.175,2.49828 2.76152,2.26986 4.3896,2.94148 8.24908,3.40292 0.17137,0.0205 1.24293,-0.0881 2.38125,-0.24124 z m -19.86964,-0.55491 c 0.29049,-0.29073 0.51363,-1.20078 0.6681,-2.7248 0.12757,-1.25856 0.37833,-2.5504 0.55725,-2.87077 1.33957,-2.39857 1.29626,-3.51808 -0.16025,-4.14241 -2.52943,-1.08424 -9.04963,-2.97364 -12.87532,-3.73096 -2.98339,-0.59058 -12.44102,-1.95632 -16.38901,-2.36668 -1.52797,-0.15882 -2.9752,-0.34723 -3.21607,-0.4187 -0.24087,-0.0715 -1.90774,-0.29966 -3.70417,-0.5071 -3.41952,-0.39486 -7.53625,-0.90848 -12.65893,-1.57936 -1.67349,-0.21917 -4.1727,-0.52493 -5.55379,-0.67947 -1.3811,-0.15454 -2.98845,-0.38752 -3.57188,-0.51773 -0.58343,-0.13021 -1.86455,-0.36472 -2.84692,-0.52112 -2.4929,-0.39691 -7.439883,-2.07324 -9.458659,-3.20516 -3.088658,-1.73181 -3.894547,-2.34735 -5.932299,-4.53115 -1.248381,-1.33785 -2.269784,-2.533393 -2.269784,-2.656763 0,-0.12337 -0.411893,-1.104077 -0.915321,-2.179349 -2.512539,-5.36657 -1.859147,-10.988712 1.712381,-14.734265 1.857158,-1.947645 2.588715,-2.218787 3.28898,-1.21902 0.616907,0.880761 0.527232,1.170612 -0.868223,2.80629 -9.25681,10.850343 1.583947,21.841627 24.298845,24.636237 2.54662,0.31331 5.70177,0.74064 7.01146,0.94962 4.26139,0.67996 8.79156,1.29709 18.25625,2.48697 13.82224,1.73769 21.68657,3.76239 29.87053,7.69027 4.75463,2.28197 4.5365,0.46854 -0.33991,-2.82588 -6.54883,-4.42428 -19.38459,-7.98601 -33.76395,-9.36899 -4.37283,-0.42057 -5.17429,-0.93207 -4.10662,-2.62089 0.89976,-1.42323 14.65621,0.85864 25.80245,4.28 1.89177,0.58069 3.79677,1.21127 4.23333,1.4013 2.38118,1.03647 2.86363,1.19787 3.58086,1.19787 1.04079,0 0.98717,-0.26466 -0.20923,-1.03251 -0.5447,-0.34959 -1.28803,-0.83119 -1.65183,-1.07023 -4.10608,-2.69788 -12.27745,-5.07191 -20.90209,-6.07269 -5.41179,-0.62796 -6.58744,-1.267716 -4.90125,-2.667124 0.94994,-0.788384 14.48254,1.271804 17.86584,2.719884 3.29839,1.41173 6.46129,1.65703 4.45288,0.34534 -1.66403,-1.08678 -2.98222,-1.762159 -4.17286,-2.137976 -0.66334,-0.209375 -1.99759,-0.667713 -2.965,-1.018529 -1.5005,-0.544126 -4.32848,-1.235689 -8.16294,-1.996191 -0.79865,-0.158399 -0.93729,-0.298747 -1.00784,-1.020228 -0.0958,-0.979517 0.8284,-1.17299 2.41688,-0.883968 1.58848,0.289022 3.33629,0.631758 4.71961,1.075886 6.90586,2.238401 4.44948,-0.195189 -5.46719,-5.416465 -1.01865,-0.536332 -2.03068,-1.079559 -2.24896,-1.20717 -3.22795,-1.887114 -15.07249,-6.100093 -21.43125,-7.62287 -6.16751,-1.476976 -7.04359,-1.638202 -13.22917,-2.434574 -3.58838,-0.461994 -4.96518,-1.541124 -3.06868,-2.405229 0.65388,-0.297926 7.60257,0.718026 12.85827,1.879978 1.23692,0.273465 3.32052,0.734351 4.63021,1.024189 5.71342,1.264396 16.50533,5.376764 23.00254,8.765354 8.05774,4.20248 17.98921,11.456754 19.39076,14.163663 0.22604,0.43656 0.86157,1.18228 1.41228,1.65715 1.16754,1.00674 3.34556,3.75675 4.03108,5.08972 1.07731,2.0948 2.63974,3.31718 3.8892,3.04275 0.44829,-0.0985 1.63505,-0.17902 2.63724,-0.17902 2.57253,0 2.56068,-0.23521 -0.18871,-3.74545 -7.34292,-9.37499 -16.35592,-17.990257 -24.40877,-23.331667 -0.65484,-0.434353 -1.3491,-0.939705 -1.54279,-1.123 -0.38829,-0.367454 -5.95042,-3.68486 -8.24679,-4.918612 -0.80037,-0.430006 -1.99099,-1.068462 -2.64584,-1.418791 -4.19385,-2.243632 -11.54811,-5.07048 -17.35124,-6.669508 -1.1526,-0.317595 -2.69094,-0.745699 -3.41855,-0.951341 -1.94557,-0.549879 -6.0199,-1.330754 -11.1125,-2.129788 C 100.8487,66.128875 99.134579,64.628738 97.904934,57.972295 95.742335,46.265504 91.81036,39.232817 85.746652,36.226134 c -2.822731,-1.399647 -3.064557,-0.922272 -0.948023,1.871432 2.0041,2.645296 3.121771,5.40431 3.442377,8.497646 0.279157,2.6934 2.614131,10.153526 3.602366,11.509375 3.752352,5.148199 1.80186,11.643896 -5.030168,16.751884 -7.977278,5.96424 -12.149659,16.778813 -8.84881,22.935614 3.503941,6.535615 14.292516,14.694875 25.890926,19.580985 1.60073,0.67434 3.26761,1.38445 3.70417,1.57802 0.43656,0.19357 1.68672,0.61133 2.77812,0.92835 1.09141,0.31702 2.28204,0.70129 2.64584,0.85395 0.74656,0.31326 3.78547,1.16206 5.50726,1.53824 0.62791,0.13718 1.69947,0.42895 2.38125,0.64836 0.68179,0.21941 2.66836,0.70243 4.41461,1.07337 1.74625,0.37094 3.53219,0.7842 3.96875,0.91835 0.43656,0.13416 1.32953,0.3205 1.98438,0.41411 0.65484,0.0936 1.84547,0.32951 2.64583,0.52422 0.80036,0.19471 2.70536,0.4855 4.23333,0.64619 1.52797,0.1607 3.00804,0.36107 3.28904,0.44528 2.38065,0.71336 22.88069,0.75455 23.58728,0.0474 z m 6.96946,-0.29498 c 1.0439,-0.53262 0.94615,-0.94989 -0.54331,-2.31922 -2.89748,-2.6638 -3.61986,-2.67624 -3.85651,-0.0664 -0.23462,2.58742 1.82042,3.7017 4.39982,2.38564 z M 75.190664,87.574372 c 1.028565,-5.349129 3.847542,-9.769514 8.556326,-13.417015 0.873125,-0.676336 1.818886,-1.409737 2.101691,-1.629778 5.783387,-4.499874 6.504956,-7.449446 3.463647,-14.158409 -1.714659,-3.782446 -2.415865,-5.882481 -3.206694,-9.603679 -0.749086,-3.524781 -0.686575,-3.505819 -9.867911,-2.993606 -6.620639,0.369355 -7.456206,1.012121 -8.433043,6.487188 -0.143938,0.806763 2.225352,0.913633 3.626811,0.163595 3.741662,2.626657 0.962465,14.32212 0.473635,16.13296 -0.715587,2.665128 -1.562182,11.883485 0.07314,17.462499 1.733262,5.913157 2.31997,6.197386 3.212398,1.556245 z M 63.04023,53.461327 c 0.995974,-0.276601 1.403491,-0.759246 1.795674,-2.126708 0.31921,-1.11302 -0.0114,-1.228682 -4.372858,-1.529842 C 56.62622,49.539842 52.109137,49.012795 48.821991,48.446515 42.024737,47.275543 37.247735,46.359826 34.269908,45.656984 24.036899,43.241732 16.221695,42.867096 12.971619,44.63601 c -1.961221,1.06743 -1.444257,1.261202 3.503414,1.313177 5.464056,0.0574 9.317305,0.802706 19.911541,3.851346 9.448276,2.718872 23.229665,4.611701 26.653656,3.660794 z m 3.479888,-6.667677 c 0.209065,-0.327422 0.517612,-1.131094 0.685659,-1.785938 0.907447,-3.536113 1.409965,-5.236161 1.746475,-5.90842 0.206222,-0.411975 0.376034,-0.888225 0.377365,-1.058334 0.0013,-0.170108 0.295264,-0.904599 0.653185,-1.632204 1.262673,-2.566844 1.605825,-2.336326 -5.94727,-3.9952 -2.591766,-0.569226 -6.132481,-1.152379 -9.525,-1.56876 -1.673489,-0.205396 -3.995208,-0.494875 -5.159375,-0.643287 -8.742111,-1.114474 -26.044918,-0.237355 -28.621505,1.450889 -0.801997,0.525489 -0.781063,0.655095 0.270431,1.674242 1.531006,1.483911 2.146424,3.044147 2.15224,5.456474 0.0058,2.427033 -0.202346,2.251059 3.312377,2.79972 1.091406,0.170371 3.234531,0.582411 4.762499,0.915641 1.527969,0.333232 3.790157,0.80895 5.027084,1.057151 1.236927,0.248197 2.581931,0.553135 2.988897,0.677632 1.034209,0.316386 9.482375,1.754462 11.563186,1.968328 0.945885,0.09722 2.255572,0.296037 2.910416,0.441822 3.7108,0.826119 12.307364,0.926997 12.803336,0.150244 z M 8.3407417,44.743425 c 1.7025403,-1.769456 5.6172043,-3.420215 9.0726313,-3.825803 4.076041,-0.478435 4.490876,-4.436674 0.67909,-6.479669 -2.30161,-1.23359 -5.010782,-0.195981 -8.2478297,3.158906 -1.9817812,2.053925 -3.7491989,5.555619 -3.7516246,7.432901 -0.00212,1.633442 0.4568029,1.574983 2.247733,-0.286335 z M 79.01824,43.171401 c 6.185993,-0.02035 6.441363,-0.280405 3.706466,-3.774581 -3.306202,-4.22409 -8.086069,-5.809462 -9.568212,-3.173556 -2.857936,5.082676 -2.932324,7.621192 -0.210214,7.173649 0.701641,-0.115358 3.434022,-0.216836 6.07196,-0.225512 z m -3.605625,-1.571122 c -1.600853,-0.434877 -1.835108,-2.789553 -0.387371,-3.893795 2.178381,-1.661533 4.504917,1.382093 2.586828,3.384146 -0.724622,0.756341 -1.030459,0.82721 -2.199457,0.509649 z"
       id="path16429"
       sodipodi:nodetypes="ssssscssssssscssssscssssssssszzssssscsscssscssszcscsssssssssssssssssscssscczssssssszcsssssssssssssssssssssssssscsssscssssccsssssssssssssssssssssssssssssscsssssssszcssssssssssssssssssssssssssssssssssssssscssssssssssssssccsssssssssssssscsssssscssssssssssscssssssssss" /></g></svg>
