<?xml version="1.0" encoding="UTF-8" standalone="no"?>
<!-- Created with Inkscape (http://www.inkscape.org/) -->

<svg
   width="200mm"
   height="200mm"
   viewBox="0 0 200 200"
   version="1.1"
   id="svg36462"
   xml:space="preserve"
   inkscape:version="1.2.2 (732a01da63, 2022-12-09)"
   sodipodi:docname="winx.svg"
   xmlns:inkscape="http://www.inkscape.org/namespaces/inkscape"
   xmlns:sodipodi="http://sodipodi.sourceforge.net/DTD/sodipodi-0.dtd"
   xmlns="http://www.w3.org/2000/svg"
   xmlns:svg="http://www.w3.org/2000/svg"><sodipodi:namedview
     id="namedview36464"
     pagecolor="#ffffff"
     bordercolor="#000000"
     borderopacity="0.25"
     inkscape:showpageshadow="2"
     inkscape:pageopacity="0.0"
     inkscape:pagecheckerboard="0"
     inkscape:deskcolor="#d1d1d1"
     inkscape:document-units="mm"
     showgrid="false"
     inkscape:zoom="0.63118804"
     inkscape:cx="49.113732"
     inkscape:cy="253.49023"
     inkscape:window-width="1920"
     inkscape:window-height="1009"
     inkscape:window-x="-8"
     inkscape:window-y="148"
     inkscape:window-maximized="1"
     inkscape:current-layer="layer1" /><defs
     id="defs36459" /><g
     inkscape:label="Layer 1"
     inkscape:groupmode="layer"
     id="layer1"><path
       style="fill:#000000;stroke-width:0.499149"
       d="m 15.451821,198.38413 c -28.566747,-7.68202 6.196636,-62.1357 33.314737,-75.31522 17.209043,-8.7187 14.999792,-9.15422 12.011006,-12.02593 C 35.37815,86.894174 29.616133,45.480964 48.072793,19.730243 69.238972,-9.8007977 86.012744,-3.9181244 80.096244,30.96108 c -2.047666,12.071502 -2.368083,15.245106 -2.771243,27.448334 -0.54398,16.465959 0.726919,47.423906 1.946858,47.423906 0.508292,0 8.538119,-6.506979 14.993172,-12.149731 20.338359,-17.778983 61.022009,-62.261661 74.738159,-81.717152 10.26063,-14.5540607 15.45072,-14.9383933 22.7552,-1.685051 21.13352,38.344951 -37.76265,98.558674 -104.218108,106.549494 -2.463213,0.29619 -4.572909,0.63285 -4.6882,0.74816 -0.732826,0.73282 14.902176,18.11857 23.406468,26.02739 10.53656,9.79882 16.74122,14.32622 29.00631,21.16523 28.07201,15.65292 31.65337,26.90454 10.41245,32.71297 -34.54139,9.44548 -69.106842,-19.55557 -73.633794,-61.78018 -1.399921,-13.05758 -1.167103,-12.40726 -3.571021,-9.97489 -5.378089,5.44174 -14.520639,26.73321 -19.173788,44.65256 -5.70236,21.95984 -18.11825,32.23169 -33.846886,28.00201 z M 112.46887,176.4365 c 6.01904,-2.85621 3.80163,-10.00464 -5.28198,-17.02787 -10.245925,-7.9219 -20.299266,-18.40452 -26.488565,-27.61959 -2.51439,-3.74362 -2.51439,-3.74362 -2.185359,-0.26324 2.390461,25.28524 21.645514,50.75236 33.955904,44.9107 z m -78.292475,-5.95066 c 1.328698,-1.42847 2.638148,-3.67424 3.703845,-6.35229 5.327115,-13.38683 12.181689,-27.63422 15.753081,-32.74313 2.486526,-3.55702 2.464818,-3.55285 -3.043773,0.5838 -24.616354,18.48555 -34.086475,35.11229 -22.960819,40.31243 2.659522,1.24306 4.079693,0.85247 6.547666,-1.80081 z M 98.008643,106.97021 C 132.42144,95.972468 157.04087,77.274973 151.42037,66.406118 c -3.40789,-6.590154 -9.80074,-3.798398 -24.89696,10.872533 -14.55692,14.146806 -20.03974,18.761841 -36.251573,30.513919 -2.889206,2.09443 -0.642955,1.85566 7.736806,-0.82236 z M 67.38465,82.459197 C 67.018166,55.672288 66.956611,55.419346 60.804633,55.419346 c -13.042425,0 -10.796038,27.320142 3.892518,47.340074 1.478787,2.01553 2.761154,3.58785 2.849708,3.49404 0.08855,-0.0938 0.01557,-10.801229 -0.162209,-23.794263 z"
       id="path36960"
       sodipodi:nodetypes="sccsssssssscssssssssssssssssssssssscsssc" /></g></svg>
