<?xml version="1.0" encoding="UTF-8" standalone="no"?>
<!-- Created with Inkscape (http://www.inkscape.org/) -->

<svg
   width="200mm"
   height="200mm"
   viewBox="0 0 200 200"
   version="1.1"
   id="svg8546"
   xml:space="preserve"
   inkscape:version="1.2.2 (732a01da63, 2022-12-09)"
   sodipodi:docname="etsy.svg"
   xmlns:inkscape="http://www.inkscape.org/namespaces/inkscape"
   xmlns:sodipodi="http://sodipodi.sourceforge.net/DTD/sodipodi-0.dtd"
   xmlns="http://www.w3.org/2000/svg"
   xmlns:svg="http://www.w3.org/2000/svg"><sodipodi:namedview
     id="namedview8548"
     pagecolor="#ffffff"
     bordercolor="#000000"
     borderopacity="0.25"
     inkscape:showpageshadow="2"
     inkscape:pageopacity="0.0"
     inkscape:pagecheckerboard="0"
     inkscape:deskcolor="#d1d1d1"
     inkscape:document-units="mm"
     showgrid="false"
     inkscape:zoom="0.89263468"
     inkscape:cx="217.33415"
     inkscape:cy="425.70607"
     inkscape:window-width="1920"
     inkscape:window-height="1009"
     inkscape:window-x="-8"
     inkscape:window-y="148"
     inkscape:window-maximized="1"
     inkscape:current-layer="layer1" /><defs
     id="defs8543" /><g
     inkscape:label="Layer 1"
     inkscape:groupmode="layer"
     id="layer1"><path
       id="rect8705"
       style="fill:#000000;stroke-width:31.4063;stroke-linejoin:round;stroke-opacity:0.996491"
       d="M 14.767574 0 C 6.5864734 -1.2533172e-15 0 6.5864734 0 14.767574 L 0 185.23262 C -1.2533172e-15 193.41372 6.5864734 200.0002 14.767574 200.0002 L 185.23262 200.0002 C 193.41372 200.0002 200.0002 193.41372 200.0002 185.23262 L 200.0002 14.767574 C 200.0002 6.5864734 193.41372 0 185.23262 0 L 14.767574 0 z M 157.26792 26.142074 C 157.30642 26.194014 157.17522 28.379942 156.97646 30.999141 C 156.50413 37.224009 155.81062 49.621156 155.37398 59.644421 L 155.02516 67.653235 L 151.04608 67.653235 L 147.06699 67.653235 L 146.78484 66.57113 C 146.62975 65.975858 145.89683 63.085978 145.156 60.1493 C 141.77119 46.731591 138.51504 40.840258 133.33553 38.764042 L 131.60385 38.070028 L 106.78263 37.982178 C 79.841802 37.88694 80.072193 37.874711 79.535197 39.415165 C 79.315338 40.045832 79.219454 48.628478 79.219454 67.696643 L 79.219454 95.072233 L 87.372961 95.068099 C 102.15413 95.061099 111.75779 94.391584 114.69946 93.162789 C 117.78584 91.87355 118.59079 89.912366 121.93933 75.518388 L 122.56048 72.848267 L 126.86564 72.848267 L 131.1708 72.848267 L 131.16564 74.219242 C 131.16164 74.973256 130.91749 81.110229 130.62045 87.856653 C 130.13317 98.923501 130.11483 101.36462 130.43597 112.82205 C 130.85183 127.6595 131.38513 125.9894 126.26516 125.88999 L 122.12588 125.80989 L 120.4557 119.19944 C 116.90498 105.14683 116.28376 104.89913 84.620675 104.88714 L 79.198267 104.88507 L 79.283533 129.2009 L 79.368799 153.51724 L 80.022506 155.44943 C 82.399885 162.47539 84.48586 162.96495 111.42421 162.82365 C 142.52758 162.66051 142.64773 162.59442 152.54521 140.22193 L 156.94236 130.28352 L 160.65221 130.28352 C 162.69269 130.28352 164.36206 130.36836 164.36206 130.47214 C 164.36206 130.57598 163.64681 136.38787 162.77249 143.38763 C 161.89817 150.38738 160.73379 160.06073 160.18505 164.88348 C 159.63632 169.70619 159.12224 173.71688 159.04249 173.79663 C 158.96279 173.87633 154.31468 173.77861 148.71392 173.57907 C 131.65343 172.97134 71.180928 172.86149 53.677344 173.40647 C 45.581636 173.65853 38.211249 173.86491 37.298499 173.86484 L 35.638652 173.86484 L 35.638652 169.84338 C 35.638652 166.26362 35.693892 165.80547 36.14353 165.67102 C 36.421325 165.58802 38.791709 165.11494 41.410909 164.61993 C 57.902071 161.50325 56.477652 166.06087 56.878699 115.13096 C 57.375389 52.05477 56.716625 41.729527 52.044368 39.345919 C 50.489719 38.552796 38.119061 35.925403 35.854659 35.907369 C 35.735604 35.906461 35.638652 33.957458 35.638652 31.576367 L 35.638652 27.246916 L 36.864933 27.246399 C 37.539575 27.246139 45.235032 27.515046 53.965698 27.843778 C 68.169443 28.378586 73.255892 28.427866 102.309 28.314551 C 136.67863 28.180501 135.81615 28.210121 151.18354 26.656254 C 154.49159 26.32176 157.22943 26.090142 157.26792 26.142074 z " /></g></svg>
