<svg xmlns="http://www.w3.org/2000/svg" viewBox="0 0 200 200"><path fill="#b7718d" d="m 112.01812,164.77883 0.0526,-34.39381 13.4664,-0.0536 13.46641,-0.0535 0.12579,-0.67487 c 0.0692,-0.37117 1.32022,-7.18371 2.78007,-15.13896 L 144.56371,100 l -16.31735,-0.05329 -16.31735,-0.0533 0.0921,-7.959192 c 0.24004,-20.745676 4.599,-25.02475 25.49195,-25.02475 h 8.79297 l -4e-5,-13.673881 -4e-5,-13.673879 -0.78044,-0.221035 C 137.72825,37.132362 120.60354,36.453349 111.39878,37.987511 85.514486,42.301657 75.754425,57.208114 75.754425,92.426832 v 7.46911 H 65.452656 55.150886 v 15.192508 15.19251 h 10.30177 10.301769 v 33.31518 33.31518 l -0.676379,-0.14376 C 33.728376,187.97876 0.85326796,146.43486 0.05915693,101.96703 -1.4543965,17.212589 96.443758,-31.014431 162.48326,21.952949 230.90596,76.831777 200.13831,186.61337 112.85058,199.04657 l -0.88511,0.12608 z"/></svg>
