<svg xmlns="http://www.w3.org/2000/svg" viewBox="0 0 200 200"><path fill="#b7718d" d="M 55.733962,197.38055 C 21.016636,196.40646 7.7069452,188.03895 1.5705752,163.32923 -0.29893478,155.80114 -0.60218478,45.715723 1.2194152,35.851138 4.3234452,19.041757 16.905727,5.8458306 33.93395,1.541086 c 7.303224,-1.84625934 118.31552,-2.12916824 128.07812,-0.3264003 16.80972,3.104096 30.00764,15.6885883 34.30922,32.7145343 2.0789,8.228412 2.08385,121.80848 0.006,130.00003 -8.20071,32.32496 -26.40066,36.65527 -140.592928,33.4513 z m 81.935388,-27.63606 c 27.34601,-4.87284 33.2088,-17.37479 33.2088,-70.815262 0,-66.736135 -5.20804,-71.944175 -71.94418,-71.944175 -51.82797,0 -62.028686,4.185111 -70.06056,28.744179 -2.043229,6.247584 -2.725494,70.338418 -0.863626,81.127538 3.09161,17.9152 14.564155,29.72908 31.927107,32.87704 8.541341,1.54856 69.055299,1.55688 77.732459,0.0107 z M 66.405756,158.1524 C 42.24956,155.42442 39.333962,149.04617 39.333962,98.929228 c 0,-59.947301 0.654314,-60.550082 64.926838,-59.813349 53.65515,0.61503 54.27317,1.296136 54.27317,59.813349 0,46.431672 -1.87276,52.265922 -18.50845,57.659672 -5.96469,1.93392 -60.149774,3.08467 -73.619764,1.5635 z m 45.309954,-24.71641 c 32.96256,-12.72207 31.2532,-59.545352 -2.5486,-69.812332 -27.376124,-8.315241 -53.923462,18.442006 -45.461847,45.821302 6.266313,20.27595 28.652395,31.46237 48.010447,23.99103 z m -19.2213,-10.74891 c -27.378419,-7.7408 -21.974402,-48.136795 6.43956,-48.136795 21.46759,0 32.46688,25.060483 18.01858,41.053045 -5.74668,6.36087 -16.25268,9.4037 -24.45814,7.08375 z m 49.4595,-55.761206 c 7.21913,-4.401504 4.16054,-14.796642 -4.35366,-14.796642 -8.24857,0 -11.03516,10.558926 -3.93003,14.891626 3.1424,1.916234 5.0203,1.894701 8.28369,-0.09498 z"/></svg>
