<svg xmlns="http://www.w3.org/2000/svg" viewBox="0 0 200 200"><path fill="#b7718d" d="m 40.041229,199.58752 c -4.667181,-1.6793 -5.341535,-3.43187 -5.661535,-14.71375 C 33.981148,170.82267 34.13139,171.39522 29.763052,167.28058 -21.186269,119.29025 -4.6447888,32.992238 60.416667,7.3586206 120.93331,-16.484383 187.45999,17.931212 198.41895,78.75 211.42419,150.9249 147.23765,208.72808 73.877606,190.90574 67.77431,189.42298 68.977725,189.15822 56.25,194.78401 c -13.070323,5.77722 -13.307358,5.84747 -16.208771,4.80351 z m 5.398163,-68.28738 c 0.61771,-0.31618 9.320756,-6.23357 19.340104,-13.14975 10.019346,-6.91619 18.486483,-12.66884 18.815858,-12.78366 1.714946,-0.59783 1.299498,-0.83042 19.321926,10.81746 9.22362,5.96121 17.0889,10.94595 17.47839,11.07719 1.87042,0.63024 4.33988,0.0708 5.73964,-1.30025 1.24005,-1.21464 35.92283,-54.882961 36.43375,-56.377797 1.30578,-3.820387 -1.96129,-7.820781 -6.08196,-7.447133 -1.66244,0.150746 -0.52072,-0.582731 -19.73368,12.677492 -22.37056,15.439504 -20.11419,13.992318 -21.66543,13.895773 L 113.82181,88.630658 97.379656,77.992767 C 88.336471,72.141925 80.609375,67.177898 80.208333,66.961596 78.43801,66.006771 74.998023,66.651298 73.575256,68.204392 72.532396,69.342777 37.807221,123.3202 37.439144,124.375 c -0.840427,2.40841 0.04974,4.8718 2.402631,6.64887 1.328862,1.00365 3.92609,1.13184 5.597617,0.27627 z"/></svg>
