<svg xmlns="http://www.w3.org/2000/svg" viewBox="0 0 200 200"><path fill="#b7718d" d="m 94.139255,199.85104 c -8.199217,-0.57638 -22.254131,-3.17031 -23.530757,-4.34276 -0.09236,-0.0848 0.903681,-2.02894 2.213425,-4.32027 7.04484,-12.32455 8.310473,-15.5914 12.873272,-33.2285 1.726358,-6.67308 3.18976,-12.13025 3.252007,-12.12705 0.06225,0.003 0.455125,0.50994 0.873064,1.12608 12.250864,18.0608 46.777424,10.92249 62.794334,-12.98261 C 176.86706,97.7793 161.04682,50.575702 120.888,39.31184 69.971654,25.030678 23.092515,67.657987 38.751211,113.99902 c 3.961053,11.72252 15.912583,25.239 19.867441,22.46891 1.514973,-1.06113 4.161884,-13.82306 3.167216,-15.27056 -0.289168,-0.4208 -1.002957,-1.44345 -1.586197,-2.27254 C 44.572483,96.710501 59.26676,62.464779 87.254557,55.872112 124.67897,47.0566 150.32501,77.530717 137.882,116.03057 c -6.78564,20.99537 -26.44439,31.63392 -38.932763,21.06887 -5.603616,-4.74061 -5.819798,-9.23562 -1.181544,-24.56765 3.780477,-12.49662 4.752287,-16.390283 5.152567,-20.644546 1.95721,-20.800966 -22.699974,-22.406853 -29.169936,-1.899797 -2.17575,6.896203 -1.854386,16.015223 0.810045,22.985923 l 0.686469,1.79594 -0.926527,3.96011 c -0.509589,2.17807 -3.210785,13.66078 -6.002658,25.51712 -6.378226,27.08666 -6.907899,31.45396 -5.487564,45.24651 0.441446,4.28679 0.725097,3.89626 -1.986852,2.73546 C -11.412371,161.30094 -21.892925,63.590502 42.167085,18.110348 101.90138,-24.298718 186.55365,10.971217 198.63052,83.300033 209.17674,146.4618 157.32929,204.29317 94.139255,199.85104 Z"/></svg>
